<svg width="23" height="16" viewBox="0 0 23 16" fill="none" xmlns="http://www.w3.org/2000/svg">
<path d="M7.13281 15.8984H9.72656C10.0495 15.8984 10.3073 15.8047 10.5 15.6172C10.6927 15.4297 10.7891 15.2005 10.7891 14.9297C10.7891 14.7839 10.7552 14.6328 10.6875 14.4766C10.625 14.3255 10.5234 14.1745 10.3828 14.0234C10.2109 13.8359 10.0755 13.6354 9.97656 13.4219C9.8776 13.2083 9.82812 12.987 9.82812 12.7578C9.82812 12.3047 9.97917 11.9167 10.2812 11.5938C10.5833 11.2708 10.9896 11.1094 11.5 11.1094C12.0104 11.1094 12.4167 11.2708 12.7188 11.5938C13.0208 11.9167 13.1719 12.3047 13.1719 12.7578C13.1719 12.987 13.1198 13.2083 13.0156 13.4219C12.9167 13.6354 12.7812 13.8359 12.6094 14.0234C12.474 14.1745 12.3724 14.3255 12.3047 14.4766C12.2422 14.6328 12.2109 14.7839 12.2109 14.9297C12.2109 15.2005 12.3073 15.4297 12.5 15.6172C12.6927 15.8047 12.9505 15.8984 13.2734 15.8984H15.8594C16.6458 15.8984 17.2396 15.7005 17.6406 15.3047C18.0469 14.9089 18.25 14.3229 18.25 13.5469V10.7891C18.25 10.7266 18.2708 10.6849 18.3125 10.6641C18.3542 10.638 18.4089 10.651 18.4766 10.7031C18.6432 10.8177 18.8177 10.9219 19 11.0156C19.1823 11.1042 19.3724 11.1745 19.5703 11.2266C19.7734 11.2786 19.9818 11.3047 20.1953 11.3047C20.6901 11.3047 21.1484 11.1823 21.5703 10.9375C21.9974 10.6875 22.3411 10.3438 22.6016 9.90625C22.8672 9.46875 23 8.95833 23 8.375C23 7.79688 22.8672 7.28906 22.6016 6.85156C22.3411 6.40885 21.9974 6.0651 21.5703 5.82031C21.1484 5.57552 20.6901 5.45312 20.1953 5.45312C19.9818 5.45312 19.7734 5.47917 19.5703 5.53125C19.3724 5.58333 19.1823 5.65625 19 5.75C18.8177 5.83854 18.6432 5.9401 18.4766 6.05469C18.4089 6.10677 18.3542 6.1224 18.3125 6.10156C18.2708 6.07552 18.25 6.03125 18.25 5.96875V3.14844C18.25 2.3776 18.0469 1.79427 17.6406 1.39844C17.2396 0.997396 16.6458 0.796875 15.8594 0.796875H13.2734C12.9505 0.796875 12.6927 0.890625 12.5 1.07812C12.3073 1.26562 12.2109 1.49479 12.2109 1.76562C12.2109 1.91146 12.2422 2.0625 12.3047 2.21875C12.3724 2.36979 12.474 2.52083 12.6094 2.67188C12.7812 2.85938 12.9167 3.0599 13.0156 3.27344C13.1198 3.48698 13.1719 3.71094 13.1719 3.94531C13.1719 4.38802 13.0182 4.77344 12.7109 5.10156C12.4089 5.42448 12.0052 5.58594 11.5 5.58594C10.9948 5.58594 10.5885 5.42448 10.2812 5.10156C9.97917 4.77344 9.82812 4.38802 9.82812 3.94531C9.82812 3.71094 9.8776 3.48698 9.97656 3.27344C10.0755 3.0599 10.2109 2.85938 10.3828 2.67188C10.5234 2.52083 10.625 2.36979 10.6875 2.21875C10.7552 2.0625 10.7891 1.91146 10.7891 1.76562C10.7891 1.49479 10.6927 1.26562 10.5 1.07812C10.3073 0.890625 10.0495 0.796875 9.72656 0.796875H7.13281C6.35156 0.796875 5.75781 0.997396 5.35156 1.39844C4.95052 1.79427 4.75 2.3776 4.75 3.14844V5.96875C4.75 6.03125 4.72917 6.07552 4.6875 6.10156C4.64583 6.1224 4.59115 6.10677 4.52344 6.05469C4.35677 5.9401 4.18229 5.83854 4 5.75C3.81771 5.65625 3.625 5.58333 3.42188 5.53125C3.22396 5.47917 3.01562 5.45312 2.79688 5.45312C2.30729 5.45312 1.84896 5.57552 1.42188 5.82031C0.994792 6.0651 0.651042 6.40885 0.390625 6.85156C0.130208 7.28906 0 7.79688 0 8.375C0 8.95833 0.130208 9.46875 0.390625 9.90625C0.651042 10.3438 0.994792 10.6875 1.42188 10.9375C1.84896 11.1823 2.30729 11.3047 2.79688 11.3047C3.01562 11.3047 3.22396 11.2786 3.42188 11.2266C3.625 11.1745 3.81771 11.1042 4 11.0156C4.18229 10.9219 4.35677 10.8177 4.52344 10.7031C4.59115 10.651 4.64583 10.638 4.6875 10.6641C4.72917 10.6849 4.75 10.7266 4.75 10.7891V13.5469C4.75 14.3229 4.95052 14.9089 5.35156 15.3047C5.75781 15.7005 6.35156 15.8984 7.13281 15.8984ZM7.15625 14.6406C6.79688 14.6406 6.51562 14.5417 6.3125 14.3438C6.10938 14.1458 6.00781 13.8594 6.00781 13.4844V10.1562C6.00781 9.82812 5.91406 9.56771 5.72656 9.375C5.53906 9.18229 5.3099 9.08594 5.03906 9.08594C4.89323 9.08594 4.74219 9.11979 4.58594 9.1875C4.4349 9.25 4.28385 9.35156 4.13281 9.49219C3.94531 9.66406 3.74219 9.80208 3.52344 9.90625C3.3099 10.0052 3.08854 10.0547 2.85938 10.0547C2.41667 10.0547 2.03125 9.90104 1.70312 9.59375C1.38021 9.28646 1.21875 8.88021 1.21875 8.375C1.21875 7.875 1.38021 7.47135 1.70312 7.16406C2.03125 6.85677 2.41667 6.70312 2.85938 6.70312C3.08854 6.70312 3.3099 6.75521 3.52344 6.85938C3.74219 6.95833 3.94531 7.09375 4.13281 7.26562C4.28385 7.40625 4.4349 7.51042 4.58594 7.57812C4.74219 7.64062 4.89323 7.67188 5.03906 7.67188C5.3099 7.67188 5.53906 7.57552 5.72656 7.38281C5.91406 7.1901 6.00781 6.92969 6.00781 6.60156V3.21094C6.00781 2.84115 6.10938 2.55729 6.3125 2.35938C6.51562 2.15625 6.79688 2.05469 7.15625 2.05469H8.95312C9.13542 2.05469 9.21875 2.09375 9.20312 2.17188C9.1875 2.24479 9.15625 2.31771 9.10938 2.39062C9.00521 2.55208 8.91146 2.71875 8.82812 2.89062C8.75 3.05729 8.6875 3.23438 8.64062 3.42188C8.59896 3.60417 8.57812 3.79948 8.57812 4.00781C8.57812 4.4974 8.70052 4.95573 8.94531 5.38281C9.1901 5.80469 9.53125 6.14844 9.96875 6.41406C10.4115 6.67448 10.9219 6.80469 11.5 6.80469C12.0781 6.80469 12.5859 6.67448 13.0234 6.41406C13.4661 6.14844 13.8099 5.80469 14.0547 5.38281C14.2995 4.95573 14.4219 4.4974 14.4219 4.00781C14.4219 3.79948 14.3984 3.60417 14.3516 3.42188C14.3047 3.23438 14.2422 3.05729 14.1641 2.89062C14.0859 2.71875 13.9948 2.55208 13.8906 2.39062C13.8438 2.31771 13.8099 2.24479 13.7891 2.17188C13.7734 2.09375 13.8594 2.05469 14.0469 2.05469H15.8438C16.2031 2.05469 16.4844 2.15625 16.6875 2.35938C16.8906 2.55729 16.9922 2.84115 16.9922 3.21094V6.60156C16.9922 6.92969 17.0859 7.1901 17.2734 7.38281C17.4609 7.57552 17.6901 7.67188 17.9609 7.67188C18.1068 7.67188 18.2552 7.64062 18.4062 7.57812C18.5625 7.51042 18.7161 7.40625 18.8672 7.26562C19.0547 7.09375 19.2552 6.95833 19.4688 6.85938C19.6823 6.75521 19.9036 6.70312 20.1328 6.70312C20.5807 6.70312 20.9661 6.85677 21.2891 7.16406C21.6172 7.47135 21.7812 7.875 21.7812 8.375C21.7812 8.88021 21.6172 9.28646 21.2891 9.59375C20.9661 9.90104 20.5807 10.0547 20.1328 10.0547C19.9036 10.0547 19.6823 10.0052 19.4688 9.90625C19.2552 9.80208 19.0547 9.66406 18.8672 9.49219C18.7161 9.35156 18.5625 9.25 18.4062 9.1875C18.2552 9.11979 18.1068 9.08594 17.9609 9.08594C17.6901 9.08594 17.4609 9.18229 17.2734 9.375C17.0859 9.56771 16.9922 9.82812 16.9922 10.1562V13.4844C16.9922 13.8594 16.8906 14.1458 16.6875 14.3438C16.4844 14.5417 16.2031 14.6406 15.8438 14.6406H14.0469C13.8594 14.6406 13.7734 14.6016 13.7891 14.5234C13.8099 14.4505 13.8438 14.3776 13.8906 14.3047C13.9948 14.1484 14.0859 13.9844 14.1641 13.8125C14.2422 13.6406 14.3047 13.4635 14.3516 13.2812C14.3984 13.0938 14.4219 12.8984 14.4219 12.6953C14.4219 12.1953 14.2995 11.7344 14.0547 11.3125C13.8151 10.8854 13.474 10.5417 13.0312 10.2812C12.5938 10.0208 12.0833 9.89062 11.5 9.89062C10.9167 9.89062 10.4036 10.0208 9.96094 10.2812C9.52344 10.5417 9.18229 10.8854 8.9375 11.3125C8.69792 11.7344 8.57812 12.1953 8.57812 12.6953C8.57812 12.8984 8.59896 13.0938 8.64062 13.2812C8.6875 13.4635 8.75 13.6406 8.82812 13.8125C8.91146 13.9844 9.00521 14.1484 9.10938 14.3047C9.15625 14.3776 9.1875 14.4505 9.20312 14.5234C9.21875 14.6016 9.13542 14.6406 8.95312 14.6406H7.15625Z" fill="white"/>
</svg>
