<svg width="18" height="15" viewBox="0 0 18 15" fill="none" xmlns="http://www.w3.org/2000/svg">
<path d="M2.44531 14.1016H15.0234C15.7266 14.1016 16.2708 13.8984 16.6562 13.4922C17.0469 13.0911 17.2422 12.487 17.2422 11.6797V3.05469C17.2422 2.2526 17.0365 1.65104 16.625 1.25C16.2188 0.84375 15.6068 0.640625 14.7891 0.640625H2.21094C1.50781 0.640625 0.960938 0.84375 0.570312 1.25C0.184896 1.65104 -0.0078125 2.2526 -0.0078125 3.05469V11.6797C-0.0078125 12.487 0.195312 13.0911 0.601562 13.4922C1.01302 13.8984 1.6276 14.1016 2.44531 14.1016ZM2.39844 12.9062C2.00781 12.9062 1.70833 12.8047 1.5 12.6016C1.29167 12.3932 1.1875 12.0859 1.1875 11.6797V3.05469C1.1875 2.65365 1.29167 2.35156 1.5 2.14844C1.70833 1.9401 2.00781 1.83594 2.39844 1.83594H14.8359C15.2214 1.83594 15.5182 1.9401 15.7266 2.14844C15.9401 2.35156 16.0469 2.65625 16.0469 3.0625V11.6875C16.0469 12.0885 15.9401 12.3932 15.7266 12.6016C15.5182 12.8047 15.2214 12.9062 14.8359 12.9062H2.39844ZM8.63281 9.45312C8.90885 9.45312 9.17969 9.39323 9.44531 9.27344C9.71094 9.15365 9.98177 8.95833 10.2578 8.6875L16.6016 2.45312L15.7891 1.63281L9.57812 7.76562C9.40625 7.93229 9.24219 8.05469 9.08594 8.13281C8.9349 8.21094 8.78385 8.25 8.63281 8.25C8.47656 8.25 8.32031 8.21094 8.16406 8.13281C8.01302 8.04948 7.85417 7.92708 7.6875 7.76562L1.44531 1.60156L0.625 2.42188L7.00781 8.6875C7.27865 8.95833 7.54688 9.15365 7.8125 9.27344C8.08333 9.39323 8.35677 9.45312 8.63281 9.45312ZM15.7109 13.0781L16.5234 12.2578L11.4688 7.26562L10.6562 8.07812L15.7109 13.0781ZM0.734375 12.2656L1.54688 13.0859L6.60938 8.07812L5.78906 7.26562L0.734375 12.2656Z" fill="white"/>
</svg>
