<svg width="77" height="59" viewBox="0 0 77 59" fill="none" xmlns="http://www.w3.org/2000/svg">
<path d="M9.15625 52.2188H47.875C47.6875 51.9688 47.5104 51.7188 47.3438 51.4688C47.1979 51.2396 47.0521 50.9896 46.9062 50.7188C46.7812 50.4688 46.6667 50.2083 46.5625 49.9375H9.1875C7.16667 49.9375 5.625 49.4167 4.5625 48.375C3.52083 47.3333 3 45.7917 3 43.75V9.25C3 7.20833 3.52083 5.66667 4.5625 4.625C5.625 3.58333 7.16667 3.0625 9.1875 3.0625H58.7812C60.7604 3.0625 62.2812 3.58333 63.3438 4.625C64.4271 5.66667 64.9688 7.21875 64.9688 9.28125V22C65.3229 22 65.6875 22.0417 66.0625 22.125C66.4583 22.2083 66.8438 22.3229 67.2188 22.4688V9.1875C67.2188 6.47917 66.5 4.40625 65.0625 2.96875C63.6458 1.53125 61.5625 0.8125 58.8125 0.8125H8.96875C6.30208 0.8125 4.26042 1.53125 2.84375 2.96875C1.44792 4.38542 0.75 6.45833 0.75 9.1875V43.8125C0.75 46.5625 1.45833 48.6458 2.875 50.0625C4.3125 51.5 6.40625 52.2188 9.15625 52.2188ZM34.1875 33.5312C35.0208 33.5312 35.8854 33.3438 36.7812 32.9688C37.6979 32.5938 38.6146 31.9583 39.5312 31.0625L65.6562 5.625L64.0312 4L38.0625 29.4375C37.3958 30.1042 36.7188 30.5729 36.0312 30.8438C35.3646 31.1146 34.75 31.25 34.1875 31.25C33.625 31.25 32.9896 31.1146 32.2812 30.8438C31.5938 30.5521 30.9375 30.0833 30.3125 29.4375L4.3125 4L2.6875 5.625L28.8438 31.0625C29.7604 31.9583 30.6771 32.5938 31.5938 32.9688C32.5104 33.3438 33.375 33.5312 34.1875 33.5312ZM3.03125 47.5625L4.53125 49.2812L26.5625 28.0625L24.9375 26.5312L3.03125 47.5625ZM41.8125 28.0625L45.4375 31.5625C45.4375 31.2083 45.4479 30.875 45.4688 30.5625C45.5104 30.25 45.5625 29.9583 45.625 29.6875C45.6875 29.4167 45.7812 29.1562 45.9062 28.9062L43.4375 26.5312L41.8125 28.0625ZM48.25 44.5938C48.25 46.5312 48.6354 48.1562 49.4062 49.4688C50.1771 50.8021 51.4896 52.1042 53.3438 53.375C55.1979 54.6667 57.7292 56.2292 60.9375 58.0625C61.2708 58.25 61.6979 58.3542 62.2188 58.375C62.7604 58.4167 63.25 58.3125 63.6875 58.0625C66.1042 56.6667 68.125 55.4479 69.75 54.4062C71.375 53.3646 72.6667 52.3646 73.625 51.4062C74.6042 50.4688 75.3021 49.4688 75.7188 48.4062C76.1562 47.3229 76.375 46.0521 76.375 44.5938V31.5938C76.375 30.5521 76.1875 29.7708 75.8125 29.25C75.4583 28.7292 74.7812 28.2812 73.7812 27.9062C72.9896 27.5938 72.1667 27.2812 71.3125 26.9688C70.4583 26.6354 69.5938 26.3125 68.7188 26C67.8438 25.6667 66.9792 25.3438 66.125 25.0312C65.2917 24.6979 64.5 24.3854 63.75 24.0938C63.3333 23.9479 62.8646 23.875 62.3438 23.875C61.8438 23.8542 61.3438 23.9375 60.8438 24.125C60.0938 24.3958 59.2917 24.6979 58.4375 25.0312C57.6042 25.3438 56.75 25.6667 55.875 26C55 26.3125 54.1354 26.6354 53.2812 26.9688C52.4271 27.2812 51.6146 27.5938 50.8438 27.9062C49.8438 28.2812 49.1562 28.7292 48.7812 29.25C48.4271 29.7708 48.25 30.5521 48.25 31.5938V44.5938ZM62.3125 56.125V26.0938C62.5 26.0938 62.6771 26.1146 62.8438 26.1562C63.0312 26.1979 63.2188 26.2396 63.4062 26.2812C63.8438 26.4479 64.5 26.6979 65.375 27.0312C66.2708 27.3438 67.2292 27.6979 68.25 28.0938C69.2708 28.4896 70.2188 28.8646 71.0938 29.2188C71.9896 29.5729 72.6667 29.8438 73.125 30.0312C73.5417 30.2188 73.8229 30.4479 73.9688 30.7188C74.1146 30.9688 74.1875 31.4167 74.1875 32.0625V44.5C74.1875 46.125 73.8229 47.4688 73.0938 48.5312C72.3646 49.5938 71.1875 50.6667 69.5625 51.75C67.9375 52.8333 65.7917 54.2083 63.125 55.875C62.875 56.0417 62.6042 56.125 62.3125 56.125Z" fill="white"/>
</svg>
