<svg width="18" height="19" viewBox="0 0 18 19" fill="none" xmlns="http://www.w3.org/2000/svg">
<path d="M7.51493 18.7601C3.23996 17.9951 0 14.3052 0 9.85011C0 4.90024 4.04999 0.850098 8.99991 0.850098C13.9498 0.850098 18 4.90024 18 9.85011C18 14.3052 14.76 17.9951 10.4849 18.7601L9.98989 18.3551H8.01011L7.51493 18.7601Z" fill="#4267B2"/>
<path d="M12.5099 12.3704L12.9151 9.85042H10.53V8.09545C10.53 7.37549 10.8002 6.83547 11.88 6.83547H13.05V4.54048C12.4201 4.45042 11.7001 4.36035 11.07 4.36035C8.99997 4.36035 7.56003 5.62052 7.56003 7.87048V9.85042H5.31006V12.3704H7.55985V18.7153C8.05484 18.8054 8.54983 18.8504 9.04501 18.8504C9.53981 18.8504 10.0348 18.8054 10.5298 18.7153V12.3704H12.5099Z" fill="#FAFAFA"/>
</svg>
