<svg width="21" height="16" viewBox="0 0 21 16" fill="none" xmlns="http://www.w3.org/2000/svg">
<path d="M2.5 7.51562C2.86979 7.51562 3.20833 7.42448 3.51562 7.24219C3.82292 7.0599 4.0651 6.8151 4.24219 6.50781C4.42448 6.20052 4.51562 5.85938 4.51562 5.48438C4.51562 5.11979 4.42448 4.78646 4.24219 4.48438C4.0651 4.17708 3.82292 3.93229 3.51562 3.75C3.20833 3.5625 2.86979 3.46875 2.5 3.46875C2.13021 3.46875 1.79167 3.5599 1.48438 3.74219C1.17708 3.92448 0.932292 4.16927 0.75 4.47656C0.567708 4.77865 0.476562 5.11458 0.476562 5.48438C0.476562 5.85938 0.567708 6.20052 0.75 6.50781C0.932292 6.8151 1.17708 7.0599 1.48438 7.24219C1.79167 7.42448 2.13021 7.51562 2.5 7.51562ZM2.5 6.29688C2.28125 6.29688 2.09115 6.21875 1.92969 6.0625C1.77344 5.90104 1.69531 5.70833 1.69531 5.48438C1.69531 5.26562 1.77344 5.07812 1.92969 4.92188C2.09115 4.76562 2.28125 4.6875 2.5 4.6875C2.71875 4.6875 2.90625 4.76823 3.0625 4.92969C3.21875 5.08594 3.29688 5.27083 3.29688 5.48438C3.29688 5.70833 3.21875 5.90104 3.0625 6.0625C2.91146 6.21875 2.72396 6.29688 2.5 6.29688ZM10.5 4.26562C10.8698 4.26562 11.2057 4.17448 11.5078 3.99219C11.8151 3.8099 12.0599 3.56771 12.2422 3.26562C12.4245 2.95833 12.5156 2.61719 12.5156 2.24219C12.5156 1.8724 12.4245 1.53646 12.2422 1.23438C12.0599 0.927083 11.8151 0.682292 11.5078 0.5C11.2057 0.317708 10.8698 0.226562 10.5 0.226562C10.125 0.226562 9.78385 0.317708 9.47656 0.5C9.16927 0.682292 8.92448 0.927083 8.74219 1.23438C8.5651 1.53646 8.47656 1.8724 8.47656 2.24219C8.47656 2.61719 8.56771 2.95833 8.75 3.26562C8.93229 3.56771 9.17708 3.8099 9.48438 3.99219C9.79167 4.17448 10.1302 4.26562 10.5 4.26562ZM10.5 3.04688C10.2812 3.04688 10.0911 2.96875 9.92969 2.8125C9.77344 2.65104 9.69531 2.46094 9.69531 2.24219C9.69531 2.01823 9.77344 1.83073 9.92969 1.67969C10.0911 1.52344 10.2812 1.44531 10.5 1.44531C10.7135 1.44531 10.8984 1.52604 11.0547 1.6875C11.2161 1.84375 11.2969 2.02865 11.2969 2.24219C11.2969 2.46094 11.2188 2.65104 11.0625 2.8125C10.9115 2.96875 10.724 3.04688 10.5 3.04688ZM18.4922 7.51562C18.862 7.51562 19.2005 7.42448 19.5078 7.24219C19.8151 7.0599 20.0599 6.8151 20.2422 6.50781C20.4245 6.20052 20.5156 5.85938 20.5156 5.48438C20.5156 5.11458 20.4245 4.77865 20.2422 4.47656C20.0599 4.16927 19.8151 3.92448 19.5078 3.74219C19.2005 3.5599 18.862 3.46875 18.4922 3.46875C18.1224 3.46875 17.7839 3.5625 17.4766 3.75C17.1693 3.93229 16.9245 4.17708 16.7422 4.48438C16.5651 4.78646 16.4766 5.11979 16.4766 5.48438C16.4766 5.85938 16.5651 6.20052 16.7422 6.50781C16.9245 6.8151 17.1693 7.0599 17.4766 7.24219C17.7839 7.42448 18.1224 7.51562 18.4922 7.51562ZM18.4922 6.29688C18.2682 6.29688 18.0781 6.21875 17.9219 6.0625C17.7708 5.90104 17.6953 5.70833 17.6953 5.48438C17.6953 5.27083 17.7734 5.08594 17.9297 4.92969C18.0859 4.76823 18.2734 4.6875 18.4922 4.6875C18.7109 4.6875 18.8984 4.76562 19.0547 4.92188C19.2161 5.07812 19.2969 5.26562 19.2969 5.48438C19.2969 5.70833 19.2161 5.90104 19.0547 6.0625C18.8984 6.21875 18.7109 6.29688 18.4922 6.29688ZM3.42969 7L5.90625 8.52344C6.15625 8.67969 6.46094 8.74219 6.82031 8.71094C7.17969 8.67969 7.48958 8.49219 7.75 8.14844L10.7031 4.1875L9.58594 3.71094L6.89062 7.32812C6.81771 7.42708 6.73958 7.48698 6.65625 7.50781C6.57292 7.52344 6.46615 7.48958 6.33594 7.40625L4.05469 6L3.42969 7ZM17.5625 6.99219L16.9375 5.99219L14.6719 7.38281C14.5312 7.47135 14.4167 7.50521 14.3281 7.48438C14.2396 7.46354 14.1562 7.40104 14.0781 7.29688L11.4062 3.69531L10.2969 4.17969L13.2578 8.15625C13.5078 8.49479 13.8099 8.67969 14.1641 8.71094C14.5182 8.74219 14.8073 8.6875 15.0312 8.54688L17.5625 6.99219ZM4.41406 12.7266H16.5859V11.5469H4.41406V12.7266ZM2.46094 7.17188L4.05469 13.6641C4.20573 14.2786 4.45312 14.7396 4.79688 15.0469C5.14583 15.3542 5.64323 15.5078 6.28906 15.5078H14.7031C15.349 15.5078 15.8464 15.3542 16.1953 15.0469C16.5443 14.7396 16.7943 14.2786 16.9453 13.6641L18.5391 7.17188L17.4375 6.67188L15.7734 13.5156C15.638 14.0573 15.2865 14.3281 14.7188 14.3281H6.28125C5.70833 14.3281 5.35677 14.0573 5.22656 13.5156L3.55469 6.67188L2.46094 7.17188Z" fill="white"/>
</svg>
