<svg width="16" height="18" viewBox="0 0 16 18" fill="none" xmlns="http://www.w3.org/2000/svg">
<path d="M15.9997 9.20781C15.9997 8.66971 15.952 8.15885 15.8702 7.66162H8.17334V10.7336H12.5803C12.3828 11.7417 11.8038 12.5931 10.9456 13.1721V15.2155H13.5748C15.1142 13.7919 15.9997 11.694 15.9997 9.20781Z" fill="#4285F4"/>
<path d="M8.17441 17.1974C10.3813 17.1974 12.2272 16.4617 13.5758 15.2153L10.9466 13.1718C10.211 13.6623 9.27785 13.962 8.17441 13.962C6.04244 13.962 4.23742 12.5247 3.59033 10.5835H0.879395V12.6882C2.22124 15.3583 4.97986 17.1974 8.17441 17.1974Z" fill="#34A853"/>
<path d="M3.58961 10.5837C3.41932 10.0933 3.33077 9.56882 3.33077 9.02391C3.33077 8.479 3.42613 7.95452 3.58961 7.4641V5.35938H0.878669C0.320135 6.46282 0 7.7025 0 9.02391C0 10.3453 0.320135 11.585 0.878669 12.6884L3.58961 10.5837Z" fill="#FFD66C"/>
<path d="M8.17442 4.08552C9.38003 4.08552 10.4562 4.50101 11.3077 5.31157L13.6372 2.98207C12.2272 1.66066 10.3813 0.850098 8.17442 0.850098C4.97986 0.850098 2.22124 2.68918 0.879395 5.35925L3.59034 7.46398C4.23742 5.52273 6.04244 4.08552 8.17442 4.08552Z" fill="#EA4335"/>
</svg>
