<svg width="19" height="17" viewBox="0 0 19 17" fill="none" xmlns="http://www.w3.org/2000/svg">
<path d="M17.6328 12.3203C18.1224 11.8307 18.4505 11.2995 18.6172 10.7266C18.7839 10.1536 18.7839 9.58073 18.6172 9.00781C18.4557 8.4349 18.1302 7.90365 17.6406 7.41406L11.8203 1.59375C11.3255 1.10417 10.7917 0.778646 10.2188 0.617188C9.65104 0.450521 9.08073 0.450521 8.50781 0.617188C7.9401 0.778646 7.40625 1.10677 6.90625 1.60156C6.41667 2.09115 6.08854 2.6224 5.92188 3.19531C5.76042 3.76823 5.76042 4.34115 5.92188 4.91406C6.08333 5.48698 6.40885 6.01823 6.89844 6.50781L12.7266 12.3359C13.2161 12.8255 13.7448 13.151 14.3125 13.3125C14.8854 13.474 15.4557 13.474 16.0234 13.3125C16.5964 13.1458 17.1328 12.8151 17.6328 12.3203ZM16.7344 11.4219C16.4219 11.7344 16.0781 11.9401 15.7031 12.0391C15.3333 12.138 14.9583 12.1302 14.5781 12.0156C14.2031 11.901 13.8542 11.6797 13.5312 11.3516L7.875 5.70312C7.55208 5.375 7.33333 5.02344 7.21875 4.64844C7.10417 4.27344 7.09635 3.90104 7.19531 3.53125C7.29427 3.15625 7.4974 2.8125 7.80469 2.5C8.11719 2.1875 8.45833 1.98438 8.82812 1.89062C9.20312 1.79167 9.57812 1.79948 9.95312 1.91406C10.3333 2.02865 10.6849 2.2474 11.0078 2.57031L16.6641 8.22656C16.987 8.54948 17.2057 8.90104 17.3203 9.28125C17.4349 9.65625 17.4427 10.0286 17.3438 10.3984C17.2448 10.7682 17.0417 11.1094 16.7344 11.4219ZM14.6172 5.50781L13.7188 4.60938L9.91406 8.40625L10.8125 9.30469L14.6172 5.50781ZM4.51562 16.6641C5.10417 16.6641 5.65625 16.5521 6.17188 16.3281C6.6875 16.1094 7.14062 15.8047 7.53125 15.4141C7.92188 15.0234 8.22656 14.5703 8.44531 14.0547C8.66406 13.5391 8.77344 12.987 8.77344 12.3984C8.77344 11.8151 8.66406 11.2682 8.44531 10.7578C8.22656 10.2422 7.92188 9.78906 7.53125 9.39844C7.14062 9.00781 6.6875 8.70312 6.17188 8.48438C5.65625 8.26042 5.10417 8.14844 4.51562 8.14844C3.92708 8.14844 3.375 8.26042 2.85938 8.48438C2.34375 8.70312 1.89062 9.00781 1.5 9.39844C1.10938 9.78906 0.802083 10.2422 0.578125 10.7578C0.359375 11.2682 0.25 11.8151 0.25 12.3984C0.25 12.987 0.359375 13.5391 0.578125 14.0547C0.802083 14.5703 1.10938 15.0234 1.5 15.4141C1.89062 15.8047 2.34375 16.1094 2.85938 16.3281C3.375 16.5521 3.92708 16.6641 4.51562 16.6641ZM4.51562 15.4062C3.95833 15.4062 3.45312 15.2708 3 15C2.54688 14.7344 2.1849 14.375 1.91406 13.9219C1.64323 13.4635 1.50781 12.9557 1.50781 12.3984C1.50781 11.8464 1.64323 11.3438 1.91406 10.8906C2.1849 10.4375 2.54688 10.0781 3 9.8125C3.45833 9.54167 3.96354 9.40625 4.51562 9.40625C5.06771 9.40625 5.57031 9.54167 6.02344 9.8125C6.47656 10.0781 6.83854 10.4375 7.10938 10.8906C7.38021 11.3438 7.51562 11.8464 7.51562 12.3984C7.51562 12.9505 7.38021 13.4557 7.10938 13.9141C6.84375 14.3672 6.48438 14.7292 6.03125 15C5.57812 15.2708 5.07292 15.4062 4.51562 15.4062ZM8.07031 13.0391V11.7656H0.96875V13.0391H8.07031Z" fill="white"/>
</svg>
