<svg width="22" height="20" viewBox="0 0 22 20" fill="none" xmlns="http://www.w3.org/2000/svg">
<path d="M0.268555 9.38867C0.268555 9.8457 0.611328 10.2324 1.17383 10.2324C1.44629 10.2324 1.68359 10.083 1.89453 9.90723L10.6309 2.58594C10.8682 2.375 11.1406 2.375 11.3779 2.58594L20.1055 9.90723C20.3164 10.083 20.5537 10.2324 20.8262 10.2324C21.3359 10.2324 21.7227 9.91602 21.7227 9.41504C21.7227 9.11621 21.6084 8.87891 21.3799 8.69434L18.9102 6.61133V2.98145C18.9102 2.58594 18.6553 2.33105 18.2686 2.33105H17.082C16.6865 2.33105 16.4229 2.58594 16.4229 2.98145V4.52832L12.2393 1.00391C11.4834 0.371094 10.5342 0.371094 9.76953 1.00391L0.611328 8.69434C0.382812 8.8877 0.268555 9.14258 0.268555 9.38867ZM3.11621 17.29C3.11621 18.5557 3.90723 19.3115 5.19922 19.3115H16.792C18.0928 19.3115 18.8838 18.5557 18.8838 17.29V10.5928L11.5361 4.43164C11.2021 4.1416 10.7891 4.15039 10.4551 4.43164L3.11621 10.584V17.29ZM13.2939 17.5361H8.68848V11.8848C8.68848 11.4717 8.96094 11.208 9.37402 11.208H12.6172C13.0303 11.208 13.2939 11.4717 13.2939 11.8848V17.5361Z" fill="white"/>
</svg>
