<svg width="24" height="24" viewBox="0 0 24 24" fill="none" xmlns="http://www.w3.org/2000/svg">
<g clip-path="url(#clip0_25_21745)">
<path d="M0 0H24V24H0V0Z" fill="#0D2B5B"/>
<path d="M2.0227 12.9642C2.0227 12.6409 2.01715 12.3703 2 12.1282H2.60059L2.6291 12.5436H2.64575C2.7817 12.3243 3.03092 12.0645 3.49556 12.0645C3.85828 12.0645 4.1413 12.2725 4.26036 12.5837H4.27196C4.36832 12.4281 4.48133 12.3125 4.61148 12.2322C4.7646 12.1223 4.94066 12.0645 5.16693 12.0645C5.62601 12.0645 6.09014 12.3816 6.09014 13.2818V14.9363H5.41034V13.385C5.41034 12.9182 5.25168 12.6409 4.91746 12.6409C4.67959 12.6409 4.50378 12.8145 4.43037 13.0163C4.40995 13.0933 4.39852 13.1725 4.39632 13.2523V14.9366H3.71652V13.3098C3.71652 12.9185 3.56366 12.6412 3.24054 12.6412C2.98047 12.6412 2.80491 12.8492 2.74185 13.0448C2.71385 13.1141 2.70225 13.1953 2.70225 13.2754V14.9366H2.0227V12.9642ZM8.73896 14.2621C8.73896 14.5155 8.75031 14.7633 8.77831 14.9366H8.14946L8.10431 14.6254H8.08716C7.91714 14.8447 7.62807 14.9997 7.2719 14.9997C6.71646 14.9997 6.40494 14.5907 6.40494 14.1637C6.40494 13.4538 7.02193 13.0969 8.04226 13.1026V13.0566C8.04226 12.8718 7.96835 12.5662 7.48101 12.5662C7.20884 12.5662 6.92582 12.653 6.73891 12.7737L6.60295 12.3123C6.80702 12.1852 7.16394 12.0643 7.59982 12.0643C8.48394 12.0643 8.73921 12.6358 8.73921 13.2464L8.73896 14.2621ZM8.05891 13.5645C7.56577 13.5527 7.09584 13.6623 7.09584 14.089C7.09584 14.3658 7.2719 14.4929 7.49262 14.4929C7.76983 14.4929 7.97415 14.3078 8.03646 14.1062C8.05171 14.0558 8.05937 14.0034 8.05916 13.9506V13.5645H8.05891ZM9.22024 12.9642C9.22024 12.6409 9.21444 12.3703 9.19804 12.1282H9.80923L9.84303 12.5498H9.86018C9.97899 12.3303 10.2794 12.0645 10.7382 12.0645C11.22 12.0645 11.7182 12.3816 11.7182 13.2702V14.9363H11.0215V13.3509C11.0215 12.9472 10.874 12.6407 10.4946 12.6407C10.2174 12.6407 10.0241 12.8427 9.95074 13.0564C9.92803 13.1195 9.92249 13.2063 9.92249 13.2864V14.9361H9.21999L9.22024 12.9642ZM14.7396 11V14.1465C14.7396 14.4349 14.7512 14.7468 14.7623 14.9366H14.1395L14.111 14.4929H14.0994C13.9354 14.8041 13.6007 15 13.1989 15C12.5415 15 12.0207 14.4292 12.0207 13.5647C12.0146 12.6245 12.5922 12.0648 13.2556 12.0648C13.635 12.0648 13.9069 12.2263 14.0315 12.4348H14.0434V11.0003H14.7398V11H14.7396ZM14.0431 13.2987C14.0431 13.2415 14.0376 13.1722 14.026 13.1141C13.9637 12.8379 13.7432 12.6127 13.4257 12.6127C12.9782 12.6127 12.7284 13.0166 12.7284 13.5411C12.7284 14.0539 12.9779 14.429 13.4201 14.429C13.7029 14.429 13.9523 14.2326 14.0202 13.927C14.0373 13.8639 14.0434 13.7943 14.0434 13.7196V13.2987H14.0431ZM15.2325 14.9366V12.1282H15.9355V14.9366H15.2325ZM16.4279 13.0338C16.4279 12.6533 16.4226 12.3819 16.4057 12.1284H17.0118L17.034 12.6643H17.057C17.1929 12.2666 17.5155 12.1284 17.8109 12.1284C17.8788 12.1284 17.9181 12.1166 17.9746 12.1284V12.7516C17.9078 12.7365 17.8395 12.7288 17.7711 12.7285C17.4361 12.7285 17.2096 12.9478 17.1475 13.2643C17.1338 13.3368 17.1263 13.4103 17.1251 13.4841V14.9368H16.4279V13.0338ZM18.298 14.9366V12.1282H19V14.9366H18.298Z" fill="white"/>
<path d="M22.4432 9.46783C22.1074 9.18414 21.7505 9.31255 21.4669 9.41697C21.3476 9.46062 20.4864 9.82223 20.4864 9.82223C20.0146 9.96633 19.6472 9.80906 19.5031 9.67668C19.4893 9.66413 19.4768 9.6508 19.4658 9.63682L19.4322 9.59372C19.3754 9.52097 19.3123 9.45102 19.2433 9.38433C19.2014 9.34391 19.156 9.30553 19.1074 9.26944C18.7846 9.02795 18.2687 8.85896 17.4063 9.16592C16.998 9.34122 15.6679 9.90411 15.6679 9.90411C15.1681 10.0565 14.7859 9.87092 14.6617 9.73476C14.6561 9.72966 14.6512 9.72416 14.6471 9.71834L14.6308 9.69778L14.5465 9.5957C14.5085 9.55099 14.4677 9.5076 14.4243 9.46567C14.382 9.4255 14.3366 9.3872 14.2882 9.35096C13.9676 9.11091 13.4543 8.94228 12.5995 9.24347C12.0826 9.46206 10.8804 9.9712 10.8804 9.9712L10.8799 9.97156L10 10.344L10.4553 10.7581C10.6469 10.8934 11.007 11.1152 11.564 10.9282C11.564 10.9282 13.1015 10.2686 13.1076 10.2666C14.4221 9.73223 15.0707 10.2428 15.3575 10.5831C15.3675 10.5938 15.3755 10.6053 15.3845 10.6156L15.385 10.6161C15.3887 10.6203 15.3909 10.6241 15.394 10.6281L15.4264 10.6674C15.5662 10.8243 15.7865 10.9256 16.0492 10.9209C16.1941 10.9188 16.2924 10.8838 16.4356 10.8248L17.9232 10.1856L17.9264 10.1846C19.2574 9.64368 19.917 10.1876 20.1986 10.528C20.2206 10.5574 20.2454 10.5855 20.271 10.6116C20.4105 10.7518 20.6028 10.8436 20.8472 10.8391C21.0087 10.8367 21.1896 10.7649 21.2166 10.7518L23 9.98924C23.0005 9.9896 22.8184 9.78562 22.4432 9.46783Z" fill="#FDD213"/>
</g>
<defs>
<clipPath id="clip0_25_21745">
<rect width="24" height="24" rx="4" fill="white"/>
</clipPath>
</defs>
</svg>
