<svg width="17" height="14" viewBox="0 0 17 14" fill="none" xmlns="http://www.w3.org/2000/svg">
<path d="M10.416 4.81543H14.1484C14.2669 4.81543 14.3672 4.77441 14.4492 4.69238C14.5312 4.61035 14.5723 4.51009 14.5723 4.3916C14.5723 4.27311 14.5312 4.17513 14.4492 4.09766C14.3672 4.01562 14.2669 3.97461 14.1484 3.97461H10.416C10.293 3.97461 10.1904 4.01562 10.1084 4.09766C10.0264 4.17513 9.98535 4.27311 9.98535 4.3916C9.98535 4.51009 10.0264 4.61035 10.1084 4.69238C10.1904 4.77441 10.293 4.81543 10.416 4.81543ZM10.416 7.49512H14.1484C14.2669 7.49512 14.3672 7.4541 14.4492 7.37207C14.5312 7.29004 14.5723 7.1875 14.5723 7.06445C14.5723 6.95052 14.5312 6.85482 14.4492 6.77734C14.3672 6.69531 14.2669 6.6543 14.1484 6.6543H10.416C10.293 6.6543 10.1904 6.69531 10.1084 6.77734C10.0264 6.85482 9.98535 6.95052 9.98535 7.06445C9.98535 7.1875 10.0264 7.29004 10.1084 7.37207C10.1904 7.4541 10.293 7.49512 10.416 7.49512ZM10.416 10.168H14.1484C14.2669 10.168 14.3672 10.1292 14.4492 10.0518C14.5312 9.96973 14.5723 9.87174 14.5723 9.75781C14.5723 9.63932 14.5312 9.53906 14.4492 9.45703C14.3672 9.37044 14.2669 9.32715 14.1484 9.32715H10.416C10.293 9.32715 10.1904 9.37044 10.1084 9.45703C10.0264 9.53906 9.98535 9.63932 9.98535 9.75781C9.98535 9.87174 10.0264 9.96973 10.1084 10.0518C10.1904 10.1292 10.293 10.168 10.416 10.168ZM3.29297 10.168H8.63184C8.74121 10.168 8.82324 10.1338 8.87793 10.0654C8.93717 9.99707 8.9668 9.91276 8.9668 9.8125C8.9668 9.65299 8.90527 9.44564 8.78223 9.19043C8.66374 8.93522 8.47917 8.68001 8.22852 8.4248C7.98242 8.16504 7.67025 7.94857 7.29199 7.77539C6.91374 7.60221 6.4694 7.51562 5.95898 7.51562C5.44857 7.51562 5.00423 7.60221 4.62598 7.77539C4.25228 7.94857 3.9401 8.16504 3.68945 8.4248C3.44336 8.68001 3.25879 8.93522 3.13574 9.19043C3.01725 9.44564 2.95801 9.65299 2.95801 9.8125C2.95801 9.91276 2.98535 9.99707 3.04004 10.0654C3.09928 10.1338 3.18359 10.168 3.29297 10.168ZM5.95898 7.03711C6.3737 7.03711 6.72689 6.88216 7.01855 6.57227C7.31022 6.26237 7.45605 5.87272 7.45605 5.40332C7.45605 5.11165 7.3877 4.84505 7.25098 4.60352C7.11882 4.36198 6.9388 4.16829 6.71094 4.02246C6.48763 3.87663 6.23698 3.80371 5.95898 3.80371C5.68555 3.80371 5.4349 3.87663 5.20703 4.02246C4.97917 4.16829 4.79688 4.36198 4.66016 4.60352C4.52799 4.84505 4.46191 5.11165 4.46191 5.40332C4.46191 5.87272 4.60775 6.26237 4.89941 6.57227C5.19564 6.88216 5.54883 7.03711 5.95898 7.03711ZM2.88965 13.3604H14.7158C15.4359 13.3604 15.9736 13.1826 16.3291 12.8271C16.6846 12.4762 16.8623 11.9499 16.8623 11.248V2.89453C16.8623 2.19271 16.6846 1.66406 16.3291 1.30859C15.9736 0.953125 15.4359 0.775391 14.7158 0.775391H2.88965C2.17415 0.775391 1.63639 0.953125 1.27637 1.30859C0.920898 1.65951 0.743164 2.18815 0.743164 2.89453V11.248C0.743164 11.9499 0.920898 12.4762 1.27637 12.8271C1.63639 13.1826 2.17415 13.3604 2.88965 13.3604ZM2.90332 12.2598C2.56152 12.2598 2.29948 12.1709 2.11719 11.9932C1.9349 11.8109 1.84375 11.542 1.84375 11.1865V2.95605C1.84375 2.60059 1.9349 2.33171 2.11719 2.14941C2.29948 1.96712 2.56152 1.87598 2.90332 1.87598H14.7021C15.0394 1.87598 15.2992 1.96712 15.4814 2.14941C15.6683 2.33171 15.7617 2.60059 15.7617 2.95605V11.1865C15.7617 11.542 15.6683 11.8109 15.4814 11.9932C15.2992 12.1709 15.0394 12.2598 14.7021 12.2598H2.90332Z" fill="white"/>
</svg>
