<svg width="54" height="58" viewBox="0 0 54 58" fill="none" xmlns="http://www.w3.org/2000/svg">
<path d="M6.78125 57.5H47.1562C51.6562 57.5 53.9062 55.9688 53.9062 52.9062C53.9062 50.8646 53.2812 48.7083 52.0312 46.4375C50.8021 44.1458 49.0208 41.9896 46.6875 39.9688C44.3542 37.9479 41.5312 36.3125 38.2188 35.0625C34.9062 33.7917 31.1667 33.1562 27 33.1562C22.8125 33.1562 19.0625 33.7917 15.75 35.0625C12.4375 36.3125 9.61458 37.9479 7.28125 39.9688C4.94792 41.9896 3.15625 44.1458 1.90625 46.4375C0.677083 48.7083 0.0625 50.8646 0.0625 52.9062C0.0625 55.9688 2.30208 57.5 6.78125 57.5ZM5.84375 53.875C5.11458 53.875 4.60417 53.7708 4.3125 53.5625C4.04167 53.375 3.90625 53.0208 3.90625 52.5C3.90625 51.0417 4.41667 49.4062 5.4375 47.5938C6.45833 45.7812 7.94792 44.0625 9.90625 42.4375C11.8854 40.7917 14.3021 39.4375 17.1562 38.375C20.0312 37.3125 23.3125 36.7812 27 36.7812C30.6667 36.7812 33.9271 37.3125 36.7812 38.375C39.6562 39.4375 42.0729 40.7917 44.0312 42.4375C46.0104 44.0625 47.5104 45.7812 48.5312 47.5938C49.5521 49.4062 50.0625 51.0417 50.0625 52.5C50.0625 53.0208 49.9167 53.375 49.625 53.5625C49.3542 53.7708 48.8646 53.875 48.1562 53.875H5.84375ZM27.0312 28.9062C29.4479 28.9062 31.6458 28.2604 33.625 26.9688C35.625 25.6562 37.2083 23.9167 38.375 21.75C39.5625 19.5833 40.1562 17.1667 40.1562 14.5C40.1562 11.8958 39.5625 9.54167 38.375 7.4375C37.2083 5.3125 35.625 3.625 33.625 2.375C31.6458 1.10417 29.4479 0.46875 27.0312 0.46875C24.6146 0.46875 22.4062 1.11458 20.4062 2.40625C18.4271 3.67708 16.8438 5.375 15.6562 7.5C14.4688 9.625 13.8854 11.9688 13.9062 14.5312C13.9062 17.1771 14.4896 19.5938 15.6562 21.7812C16.8438 23.9479 18.4271 25.6771 20.4062 26.9688C22.3854 28.2604 24.5938 28.9062 27.0312 28.9062ZM27.0312 25.25C25.3229 25.25 23.7604 24.7812 22.3438 23.8438C20.9479 22.8854 19.8333 21.6042 19 20C18.1667 18.375 17.75 16.5521 17.75 14.5312C17.75 12.6146 18.1667 10.875 19 9.3125C19.8333 7.72917 20.9479 6.46875 22.3438 5.53125C23.7604 4.59375 25.3229 4.125 27.0312 4.125C28.7396 4.125 30.2917 4.58333 31.6875 5.5C33.0833 6.41667 34.1979 7.66667 35.0312 9.25C35.8646 10.8125 36.2812 12.5625 36.2812 14.5C36.2812 16.5 35.8646 18.3125 35.0312 19.9375C34.2188 21.5625 33.1042 22.8542 31.6875 23.8125C30.2917 24.7708 28.7396 25.25 27.0312 25.25Z" fill="white"/>
</svg>
