<svg width="17" height="17" viewBox="0 0 17 17" fill="none" xmlns="http://www.w3.org/2000/svg">
<path d="M12.1562 16.0234C12.8385 16.0234 13.4193 15.9245 13.8984 15.7266C14.3776 15.5339 14.8151 15.2135 15.2109 14.7656C15.2422 14.7344 15.2708 14.7005 15.2969 14.6641C15.3281 14.6328 15.3594 14.6016 15.3906 14.5703C15.625 14.3099 15.7969 14.0521 15.9062 13.7969C16.0208 13.5365 16.0781 13.2839 16.0781 13.0391C16.0781 12.7578 15.9948 12.487 15.8281 12.2266C15.6615 11.9609 15.4036 11.7083 15.0547 11.4688L12.7812 9.89062C12.4323 9.65104 12.0625 9.52865 11.6719 9.52344C11.2865 9.51823 10.9297 9.67708 10.6016 10L10 10.6016C9.91146 10.6901 9.82552 10.7396 9.74219 10.75C9.66406 10.7604 9.58073 10.737 9.49219 10.6797C9.35156 10.5911 9.17188 10.4583 8.95312 10.2812C8.73958 10.1042 8.51562 9.91146 8.28125 9.70312C8.04688 9.48958 7.83333 9.28646 7.64062 9.09375C7.4375 8.89062 7.23958 8.6849 7.04688 8.47656C6.85938 8.26823 6.6849 8.06771 6.52344 7.875C6.36719 7.67708 6.23698 7.49479 6.13281 7.32812C6.08073 7.23958 6.0599 7.15625 6.07031 7.07812C6.08073 6.99479 6.13021 6.90885 6.21875 6.82031L6.8125 6.21875C7.14062 5.89062 7.30208 5.53385 7.29688 5.14844C7.29167 4.75781 7.16927 4.38802 6.92969 4.03906L5.35156 1.76562C5.10677 1.41667 4.85417 1.16146 4.59375 1C4.33333 0.833333 4.0625 0.747396 3.78125 0.742188C3.28646 0.731771 2.77604 0.960938 2.25 1.42969C2.21875 1.46094 2.1849 1.49219 2.14844 1.52344C2.11719 1.54948 2.08594 1.57552 2.05469 1.60156C1.61198 1.9974 1.29167 2.4349 1.09375 2.91406C0.895833 3.39323 0.796875 3.97135 0.796875 4.64844C0.796875 5.39323 0.945312 6.18229 1.24219 7.01562C1.54427 7.84896 1.98438 8.70052 2.5625 9.57031C3.14583 10.4349 3.85677 11.2865 4.69531 12.125C5.53385 12.9583 6.38542 13.6641 7.25 14.2422C8.11458 14.8255 8.96094 15.2682 9.78906 15.5703C10.6224 15.8724 11.4115 16.0234 12.1562 16.0234ZM12.1641 14.8203C11.5026 14.8359 10.7917 14.6901 10.0312 14.3828C9.27083 14.0755 8.51042 13.6562 7.75 13.125C6.98958 12.5885 6.27083 11.9844 5.59375 11.3125C4.91667 10.6354 4.30208 9.90885 3.75 9.13281C3.20312 8.35156 2.77083 7.57552 2.45312 6.80469C2.13542 6.02865 1.98177 5.3099 1.99219 4.64844C2.0026 4.21615 2.08333 3.82031 2.23438 3.46094C2.38542 3.09635 2.61458 2.78125 2.92188 2.51562C2.94792 2.48958 2.97135 2.46875 2.99219 2.45312C3.01823 2.43229 3.04427 2.41146 3.07031 2.39062C3.1849 2.29167 3.30208 2.21615 3.42188 2.16406C3.54688 2.10677 3.66667 2.07812 3.78125 2.07812C4.03125 2.07812 4.22396 2.1849 4.35938 2.39844L5.875 4.67188C5.95833 4.79688 5.9974 4.92448 5.99219 5.05469C5.99219 5.1849 5.93229 5.3099 5.8125 5.42969L5.125 6.11719C4.85417 6.38281 4.71875 6.67188 4.71875 6.98438C4.71875 7.29167 4.81771 7.57552 5.01562 7.83594C5.23958 8.13802 5.52344 8.48438 5.86719 8.875C6.21094 9.26562 6.53385 9.60938 6.83594 9.90625C7.03385 10.1042 7.26042 10.3229 7.51562 10.5625C7.77604 10.7969 8.03385 11.026 8.28906 11.25C8.54948 11.4688 8.78125 11.6536 8.98438 11.8047C9.24479 11.9974 9.52865 12.0964 9.83594 12.1016C10.1432 12.1016 10.4323 11.9661 10.7031 11.6953L11.3906 11.0078C11.5104 10.8828 11.6354 10.8203 11.7656 10.8203C11.8958 10.8203 12.0234 10.8594 12.1484 10.9375L14.4219 12.4531C14.5365 12.5312 14.6172 12.6198 14.6641 12.7188C14.7161 12.8177 14.7422 12.9245 14.7422 13.0391C14.7422 13.2734 14.638 13.5104 14.4297 13.75C14.4089 13.776 14.388 13.8021 14.3672 13.8281C14.3516 13.849 14.3307 13.8724 14.3047 13.8984C14.0391 14.2057 13.724 14.4349 13.3594 14.5859C12.9948 14.737 12.5964 14.8151 12.1641 14.8203Z" fill="white"/>
</svg>
