<svg width="53" height="53" viewBox="0 0 53 53" fill="none" xmlns="http://www.w3.org/2000/svg">
<rect width="53" height="53" rx="16" fill="url(#paint0_linear_25_21841)" fill-opacity="0.25"/>
<rect x="7.62141" y="14.2016" width="22.6394" height="23.7222" rx="11.3197" fill="url(#paint1_linear_25_21841)" stroke="#999999" stroke-width="0.1"/>
<path d="M19.2844 21.9044C19.2162 21.9038 19.1492 21.9066 19.0834 21.9122C19.2563 21.8713 19.4238 21.8549 19.5911 21.8687C19.6608 21.8751 19.7163 21.8982 19.7908 21.9671L19.7915 21.9677C19.7923 21.9685 19.7931 21.9692 19.7939 21.97C19.6101 21.9175 19.4325 21.9052 19.2844 21.9044ZM19.2844 21.9044C19.2848 21.9044 19.2852 21.9044 19.2856 21.9044L19.2809 22.4044L19.2833 21.9044C19.2837 21.9044 19.284 21.9044 19.2844 21.9044ZM18.3869 22.621L18.224 22.2589M18.3869 22.621L18.6599 22.0531C18.6601 22.053 18.6603 22.0529 18.6605 22.0528C18.5113 22.1151 18.3656 22.1838 18.224 22.2589M18.3869 22.621L18.2233 22.2593M18.3869 22.621L17.7919 22.9171M18.224 22.2589L18.1818 22.165C18.1817 22.1651 18.1815 22.1652 18.1814 22.1652C18.1812 22.1653 18.181 22.1654 18.1809 22.1654L18.2233 22.2593M18.224 22.2589C18.2238 22.2591 18.2236 22.2592 18.2233 22.2593M18.2233 22.2593C18.016 22.3694 17.8173 22.4932 17.6284 22.631M17.5437 22.4831C17.5438 22.483 17.5438 22.483 17.5438 22.483L17.6284 22.631M17.5437 22.4831L17.6283 22.6311M17.5437 22.4831C17.4441 22.54 17.3446 22.6001 17.2461 22.6639C17.2461 22.6639 17.2461 22.6639 17.2461 22.6639C17.0029 22.8214 16.7658 23.0017 16.5487 23.2131C16.5343 23.2271 16.5184 23.2421 16.5013 23.2583C16.3831 23.3702 16.2099 23.5341 16.0771 23.7493L15.9835 23.7037M17.5437 22.4831L15.9632 24.4702M17.6284 22.631C17.6284 22.631 17.6283 22.631 17.6283 22.6311M17.6284 22.631L17.7919 22.9171M17.6283 22.6311L17.7919 22.9171M17.6283 22.6311C17.5437 22.6928 17.4611 22.7573 17.3806 22.8246L17.3805 22.8247C17.1431 23.0232 16.9328 23.2187 16.7582 23.4284L16.8969 23.572M17.7919 22.9171C17.4693 23.1015 17.1625 23.3131 16.8969 23.572M16.8969 23.572L16.7576 23.4291C16.6289 23.5838 16.5195 23.7462 16.4328 23.923C16.3937 24.0036 16.3746 24.0593 16.3656 24.0961C16.3656 24.0962 16.3655 24.0963 16.3655 24.0965C16.3577 24.1281 16.3574 24.1456 16.3578 24.1529C16.3581 24.1572 16.3585 24.1593 16.361 24.1644C16.3644 24.1715 16.3753 24.1906 16.4057 24.2219C16.4104 24.2267 16.4149 24.2313 16.4193 24.2357C16.418 24.2026 16.4249 24.1664 16.441 24.1288C16.5303 23.9228 16.6899 23.7701 16.8462 23.6206C16.8632 23.6044 16.8801 23.5882 16.8969 23.572ZM15.9632 24.4702C15.8909 24.282 15.9152 24.0866 15.9814 23.932L15.9823 23.93L15.9823 23.93C16.0099 23.8663 16.042 23.8061 16.077 23.7495L15.9835 23.7037M15.9632 24.4702C15.811 24.2548 15.8284 24.0225 15.9835 23.7037M15.9632 24.4702L17.0599 22.441M15.9835 23.7037C16.2345 23.191 16.6305 22.7999 17.0599 22.441M17.0599 22.441C17.4843 22.0862 17.9589 21.8038 18.4687 21.5911C18.8382 21.4381 19.2236 21.3362 19.6343 21.3706L17.0599 22.441ZM16.3783 27.7936C16.2577 27.7657 16.1475 27.7285 16.0598 27.6684C16.0918 27.7293 16.1364 27.7909 16.1956 27.8553L16.1978 27.8577L16.1978 27.8577C16.245 27.9098 16.29 27.952 16.3337 27.9858C16.3338 27.9858 16.3339 27.9859 16.3339 27.986C16.4213 28.0534 16.5034 28.0868 16.5878 28.0976L16.5881 28.0976C16.8096 28.126 17.0341 28.1141 17.2618 28.0663C17.2622 28.0662 17.2626 28.0662 17.263 28.0661C17.3108 28.056 17.3587 28.0444 17.4068 28.0312C17.766 27.9311 18.1065 27.795 18.4289 27.6174M16.3783 27.7936L18.1645 27.1926C18.4763 26.9828 18.7371 26.725 18.9822 26.4476C19.3567 26.0211 19.4812 25.5183 19.4175 24.9644M16.3783 27.7936C16.6419 27.8544 16.8978 27.7975 17.1478 27.7162L16.3783 27.7936ZM18.4289 27.6174C18.1298 27.8182 17.8042 28.0071 17.4386 28.1438L17.54 28.5131L17.4373 28.1443C17.3935 28.1607 17.3491 28.1763 17.3041 28.1911L17.3025 28.1916C17.0996 28.2577 16.8439 28.3268 16.5597 28.3183C16.5597 28.3183 16.5596 28.3183 16.5596 28.3183C16.4646 28.3155 16.3664 28.304 16.266 28.2809L16.2653 28.2807C16.1554 28.2552 16.0175 28.2162 15.8819 28.1441C15.8817 28.144 15.8816 28.1439 15.8814 28.1438C15.8156 28.1088 15.7504 28.066 15.6892 28.0132C15.6853 28.0098 15.6814 28.0064 15.6776 28.003C15.7209 28.069 15.7711 28.1323 15.8273 28.1935C16.0175 28.4033 16.24 28.5572 16.5244 28.5935C16.8675 28.6376 17.2077 28.6043 17.54 28.5131C17.9694 28.3936 18.3782 28.226 18.7654 28.0015M18.4289 27.6174C18.434 27.6139 18.4391 27.6105 18.4442 27.607C18.8054 27.3638 19.0983 27.0714 19.3569 26.7787L19.3579 26.7775C19.8382 26.2306 19.9912 25.582 19.9145 24.9099M18.4289 27.6174C18.4575 27.6016 18.486 27.5855 18.5143 27.5691M18.7654 28.0015C19.1722 27.7652 19.5262 27.47 19.8399 27.1289M18.7654 28.0015L18.5143 27.5691M18.7654 28.0015L18.5146 27.5689C18.5145 27.569 18.5144 27.569 18.5143 27.5691M19.8399 27.1289C20.0466 26.9033 20.2016 26.6318 20.331 26.3573M19.8399 27.1289L19.4713 26.7911C19.4714 26.791 19.4715 26.7909 19.4716 26.7908M19.8399 27.1289L19.4719 26.7904C19.4718 26.7905 19.4717 26.7907 19.4716 26.7908M20.331 26.3573C20.535 25.9211 20.6967 25.2975 20.4663 24.8378M20.331 26.3573L19.8781 26.1455C19.8782 26.1453 19.8783 26.1451 19.8784 26.1448M20.331 26.3573L19.8788 26.144C19.8786 26.1443 19.8785 26.1446 19.8784 26.1448M20.4663 24.8378C20.2958 24.5025 20.0125 24.3065 19.6615 24.2064C19.6393 24.2001 19.6172 24.1939 19.595 24.188C19.6136 24.2067 19.6318 24.2265 19.6497 24.2474C19.6497 24.2474 19.6498 24.2474 19.6498 24.2475C19.6536 24.252 19.6575 24.2565 19.6613 24.2611L19.6618 24.2618C19.8461 24.4849 19.8955 24.737 19.9144 24.9087C19.9144 24.9091 19.9145 24.9095 19.9145 24.9099M20.4663 24.8378L20.0207 25.0645C20.0204 25.064 20.0202 25.0635 20.0199 25.0631M20.4663 24.8378L20.0193 25.0618C20.0195 25.0622 20.0197 25.0626 20.0199 25.0631M19.9145 24.9099C19.9145 24.9099 19.9145 24.9099 19.9145 24.9099M19.9145 24.9099C19.9558 24.955 19.9907 25.0059 20.0199 25.0631M19.9145 24.9099C19.9137 24.9091 19.913 24.9083 19.9123 24.9075M19.9145 24.9099C19.9145 24.91 19.9145 24.91 19.9145 24.9101L19.4175 24.9644M19.9145 24.9099L19.4175 24.9644M19.9123 24.9075C19.819 24.8068 19.6929 24.7353 19.5244 24.6873L19.5237 24.6871C19.4544 24.6672 19.385 24.6496 19.3155 24.6344C19.3793 24.7354 19.4051 24.8509 19.4175 24.9644M19.9123 24.9075L19.4175 24.9644M19.9123 24.9075L19.4175 24.9644M18.5143 27.5691C18.8726 27.361 19.1879 27.0991 19.4716 26.7908M19.4716 26.7908C19.6293 26.6185 19.7588 26.3984 19.8784 26.1448M19.8784 26.1448C19.9649 25.9596 20.0377 25.7437 20.0663 25.5377C20.0952 25.3289 20.0735 25.1708 20.0199 25.0631M15.8587 27.2662L15.7986 27.2679L15.7907 27.2681L15.6065 27.2733L15.5985 27.2735L15.503 27.2762C15.5084 27.2328 15.5181 27.1901 15.5371 27.1495C15.589 27.0347 15.7027 27.018 15.7842 27.1113C15.8244 27.1553 15.8567 27.2064 15.8587 27.2662ZM15.8587 27.2662L15.7993 27.2682L15.7914 27.2685L15.605 27.2747L15.5968 27.275L15.5027 27.2782C15.4999 27.3012 15.4982 27.3244 15.4969 27.3475M15.8587 27.2662C15.859 27.2762 15.8595 27.2861 15.8601 27.2957C15.8602 27.2974 15.8603 27.2991 15.8605 27.3008C15.8622 27.3244 15.865 27.3469 15.8689 27.3683L15.5236 27.349L15.5128 27.3484L15.4969 27.3475M15.4969 27.3475C15.4966 27.3527 15.4963 27.3579 15.4961 27.363C15.496 27.3668 15.4958 27.3706 15.4957 27.3744C15.4942 27.4211 15.4956 27.4665 15.4998 27.5109C15.5564 27.5404 15.6325 27.5607 15.7248 27.5467C15.7988 27.5354 15.856 27.5062 15.8987 27.4723C15.8858 27.4409 15.8758 27.4065 15.869 27.3688L15.5235 27.3491L15.5128 27.3484L15.4969 27.3475Z" fill="white" stroke="#FAFAFA"/>
<path d="M22.9033 24.9729C22.6248 24.9958 22.3976 25.0259 22.3226 25.0369L22.9033 24.9729ZM22.9033 24.9729C21.6104 25.5994 20.3519 26.3721 19.2273 27.2155L22.9033 24.9729ZM16.2418 30.0006C16.5042 29.7134 16.7717 29.4291 17.046 29.1502C17.7224 28.4622 18.4433 27.8033 19.2273 27.2155L16.2418 30.0006ZM16.2418 30.0006C16.2302 29.9 16.2173 29.7996 16.2024 29.707L16.2023 29.7069C16.1273 29.2414 16.0382 28.7783 15.9355 28.3184L15.9355 28.3182C15.8484 27.9288 15.7516 27.5416 15.645 27.157M16.2418 30.0006L15.645 27.157M15.645 27.157C15.6835 27.1977 15.7213 27.2385 15.7583 27.2796L15.7606 27.2821L15.7635 27.2855L15.7635 27.2855L15.7665 27.2888C15.9352 27.4766 16.0945 27.6828 16.2418 27.9092C16.2418 27.9092 16.2418 27.9092 16.2418 27.9092L17.08 27.3639C17.1588 27.485 17.1636 27.606 17.1566 27.6762C17.1499 27.744 17.1303 27.7931 17.1207 27.8149C17.1098 27.8396 17.0994 27.8567 17.0946 27.8642C17.0893 27.8726 17.0856 27.8775 17.085 27.8782C17.0849 27.8784 17.0849 27.8784 17.085 27.8782C17.0858 27.8773 17.09 27.872 17.0994 27.8619C17.11 27.8502 17.1243 27.8353 17.1427 27.8171C17.2184 27.7417 17.3317 27.6399 17.4589 27.53C17.584 27.4219 17.7146 27.3128 17.8213 27.2241C17.8429 27.2062 17.8643 27.1885 17.8849 27.1714C17.9582 27.1107 18.0221 27.0578 18.0485 27.034L15.645 27.157ZM19.6983 25.8919L19.6983 25.8919C19.1033 26.2032 18.5473 26.5868 18.0487 27.0338L19.6983 25.8919ZM19.6983 25.8919C20.5175 25.4632 21.4085 25.1718 22.3223 25.037L19.6983 25.8919Z" fill="white" stroke="#FAFAFA"/>
<rect x="22.7811" y="14.2016" width="22.6394" height="23.7222" rx="11.3197" fill="url(#paint2_linear_25_21841)" stroke="#999999" stroke-width="0.1"/>
<path d="M35.6817 22.2662C35.7257 22.4123 35.7582 22.5671 35.7415 22.724C35.7336 22.7936 35.723 22.8701 35.6474 22.9025C35.5787 22.9329 35.5249 22.8858 35.4768 22.8417C35.3406 22.7143 35.1759 22.63 35.0189 22.5368C34.8414 22.4319 34.6386 22.4053 34.4405 22.4044C34.1267 22.4015 33.8326 22.4916 33.5464 22.621C33.3436 22.7123 33.1435 22.8074 32.9514 22.9171C32.6289 23.1015 32.3221 23.3131 32.0564 23.572C31.885 23.7376 31.6996 23.9004 31.6006 24.1288C31.5389 24.2729 31.6114 24.3954 31.7691 24.4073C31.873 24.4152 31.976 24.3955 32.0741 24.3641C32.4093 24.2564 32.7544 24.1886 33.0995 24.124C33.6789 24.0142 34.2563 24.0445 34.821 24.2064C35.172 24.3065 35.4553 24.5025 35.6259 24.8378C35.8563 25.2975 35.6945 25.9211 35.4906 26.3573C35.3611 26.6318 35.2062 26.9033 34.9995 27.1289C34.6857 27.47 34.3318 27.7652 33.925 28.0015C33.5378 28.226 33.1289 28.3936 32.6995 28.5131C32.3672 28.6043 32.0271 28.6376 31.6839 28.5935C31.3996 28.5572 31.1771 28.4033 30.9869 28.1935C30.7664 27.9534 30.6379 27.6798 30.6564 27.3475C30.6603 27.28 30.6673 27.2122 30.6966 27.1495C30.7486 27.0347 30.8622 27.018 30.9437 27.1113C30.9839 27.1553 31.0163 27.2064 31.0183 27.2662C31.028 27.6113 31.2545 27.7279 31.5378 27.7936C31.8015 27.8544 32.0574 27.7975 32.3074 27.7162C32.674 27.5956 33.0045 27.4083 33.3241 27.1926C33.6358 26.9828 33.8967 26.725 34.1417 26.4476C34.5162 26.0211 34.6407 25.5183 34.577 24.9644C34.5623 24.83 34.5289 24.6929 34.4358 24.5802C34.3035 24.4204 34.1291 24.3753 33.9359 24.3723C33.5644 24.3674 33.1977 24.3999 32.8341 24.49C32.5331 24.5635 32.24 24.6586 31.9547 24.7753C31.6321 24.9077 31.4548 24.8253 31.2068 24.5704C30.9685 24.3253 30.9637 24.0724 31.143 23.7037C31.394 23.191 31.79 22.7999 32.2194 22.441C32.6439 22.0862 33.1184 21.8038 33.6282 21.5911C33.9978 21.4381 34.3831 21.3362 34.7938 21.3706C34.9919 21.3882 35.1477 21.4686 35.2899 21.6C35.4889 21.7834 35.6054 22.0157 35.682 22.2666L35.6817 22.2662Z" fill="white"/>
<path d="M39.6788 24.7889C39.6724 24.8602 39.5118 24.8763 39.3601 24.9388C37.7274 25.6117 36.0993 26.5563 34.6869 27.6155C33.9283 28.1842 33.2265 28.8252 32.5622 29.5007C32.2345 29.834 31.9157 30.176 31.6026 30.523C31.5155 30.6195 31.2765 30.9949 31.1378 30.9909C30.9537 30.9856 30.9788 30.7095 30.9626 30.5828C30.9288 30.3176 30.9109 30.0506 30.8684 29.7865C30.7949 29.331 30.7077 28.8776 30.6072 28.4273C30.4911 27.9079 30.3572 27.3925 30.2057 26.8823C30.1254 26.6121 30.0404 26.3434 29.9501 26.0765C29.9168 25.9785 29.8641 25.8096 29.8942 25.7464C29.9126 25.708 29.9613 25.7083 30.0632 25.7864C30.1404 25.8461 30.2137 25.9089 30.287 25.9724C30.3982 26.0691 30.5059 26.1673 30.6139 26.2672C30.7209 26.3661 30.8263 26.4683 30.9302 26.5707C31.0535 26.693 31.175 26.8178 31.291 26.9466C31.2933 26.9492 31.2958 26.952 31.2981 26.9546C31.484 27.1615 31.659 27.3882 31.8206 27.6366C31.7685 27.5565 32.7776 26.7487 32.8744 26.6618C33.4046 26.1863 33.9951 25.779 34.6261 25.4489C35.4945 24.9944 36.4393 24.6853 37.4093 24.5423C37.6703 24.5039 39.6053 24.2544 39.6775 24.741C39.6798 24.7563 39.6803 24.7722 39.6788 24.7889Z" fill="white"/>
<defs>
<linearGradient id="paint0_linear_25_21841" x1="0.961696" y1="-3.69936e-06" x2="63.9966" y2="23.4862" gradientUnits="userSpaceOnUse">
<stop offset="0.286458" stop-color="#E007CF"/>
<stop offset="0.765625" stop-color="#1A35FB"/>
</linearGradient>
<linearGradient id="paint1_linear_25_21841" x1="7.98402" y1="14.1516" x2="35.3249" y2="23.8755" gradientUnits="userSpaceOnUse">
<stop stop-color="#E007CF" stop-opacity="0.75"/>
<stop offset="0.979167" stop-color="#1A35FB"/>
</linearGradient>
<linearGradient id="paint2_linear_25_21841" x1="23.1437" y1="14.1516" x2="50.4846" y2="23.8755" gradientUnits="userSpaceOnUse">
<stop stop-color="#E007CF" stop-opacity="0.75"/>
<stop offset="0.979167" stop-color="#1A35FB"/>
</linearGradient>
</defs>
</svg>
