<svg width="14" height="15" viewBox="0 0 14 15" fill="none" xmlns="http://www.w3.org/2000/svg">
<path d="M1.90625 14.7266H11.7266C13.0026 14.7266 13.6406 14.3099 13.6406 13.4766C13.6406 12.9661 13.4844 12.4219 13.1719 11.8438C12.8594 11.2656 12.4062 10.7214 11.8125 10.2109C11.224 9.69531 10.5078 9.27604 9.66406 8.95312C8.82552 8.63021 7.8776 8.46875 6.82031 8.46875C5.75781 8.46875 4.80469 8.63021 3.96094 8.95312C3.1224 9.27604 2.40625 9.69531 1.8125 10.2109C1.22396 10.7214 0.773438 11.2656 0.460938 11.8438C0.148438 12.4219 -0.0078125 12.9661 -0.0078125 13.4766C-0.0078125 14.3099 0.630208 14.7266 1.90625 14.7266ZM1.53906 13.5469C1.4349 13.5469 1.35938 13.5312 1.3125 13.5C1.27083 13.4688 1.25 13.4115 1.25 13.3281C1.25 13.0104 1.36979 12.6432 1.60938 12.2266C1.85417 11.8047 2.21354 11.3984 2.6875 11.0078C3.16146 10.6172 3.74479 10.2943 4.4375 10.0391C5.13021 9.77865 5.92448 9.64844 6.82031 9.64844C7.71615 9.64844 8.50781 9.77865 9.19531 10.0391C9.88802 10.2943 10.4714 10.6172 10.9453 11.0078C11.4193 11.3984 11.776 11.8047 12.0156 12.2266C12.2604 12.6432 12.3828 13.0104 12.3828 13.3281C12.3828 13.4115 12.3594 13.4688 12.3125 13.5C12.2708 13.5312 12.2005 13.5469 12.1016 13.5469H1.53906ZM6.82031 7.5C7.4401 7.5 8.00521 7.33333 8.51562 7C9.02604 6.66667 9.43229 6.22396 9.73438 5.67188C10.0417 5.11458 10.1953 4.5 10.1953 3.82812C10.1953 3.16146 10.0443 2.5599 9.74219 2.02344C9.4401 1.48177 9.03385 1.05208 8.52344 0.734375C8.01302 0.416667 7.44531 0.257812 6.82031 0.257812C6.20052 0.257812 5.63542 0.419271 5.125 0.742188C4.61458 1.0651 4.20573 1.4974 3.89844 2.03906C3.59635 2.58073 3.44531 3.18229 3.44531 3.84375C3.44531 4.51042 3.59635 5.1224 3.89844 5.67969C4.20573 6.23177 4.61458 6.67448 5.125 7.00781C5.63542 7.33594 6.20052 7.5 6.82031 7.5ZM6.82031 6.32031C6.4401 6.32031 6.08854 6.21094 5.76562 5.99219C5.44792 5.76823 5.1901 5.46875 4.99219 5.09375C4.79948 4.71875 4.70312 4.30208 4.70312 3.84375C4.70312 3.39062 4.79948 2.98438 4.99219 2.625C5.1849 2.26042 5.4401 1.97135 5.75781 1.75781C6.08073 1.54427 6.4349 1.4375 6.82031 1.4375C7.21094 1.4375 7.5651 1.54167 7.88281 1.75C8.20573 1.95833 8.46094 2.24479 8.64844 2.60938C8.84115 2.96875 8.9375 3.375 8.9375 3.82812C8.9375 4.28646 8.84115 4.70573 8.64844 5.08594C8.45573 5.46094 8.19792 5.76042 7.875 5.98438C7.55729 6.20833 7.20573 6.32031 6.82031 6.32031Z" fill="white"/>
</svg>
