<svg width="11" height="16" viewBox="0 0 11 16" fill="none" xmlns="http://www.w3.org/2000/svg">
<path d="M1.9375 15.8359H9.09375C9.67708 15.8359 10.1146 15.6849 10.4062 15.3828C10.6979 15.0859 10.8438 14.6172 10.8438 13.9766V8.59375C10.8438 7.96354 10.6979 7.5 10.4062 7.20312C10.1146 6.90104 9.67708 6.75 9.09375 6.75H1.9375C1.35417 6.75 0.916667 6.90104 0.625 7.20312C0.333333 7.5 0.1875 7.96354 0.1875 8.59375V13.9766C0.1875 14.6172 0.333333 15.0859 0.625 15.3828C0.916667 15.6849 1.35417 15.8359 1.9375 15.8359ZM1.98438 14.6641C1.80208 14.6641 1.66667 14.6172 1.57812 14.5234C1.48958 14.4349 1.44531 14.2812 1.44531 14.0625V8.51562C1.44531 8.29688 1.48958 8.14323 1.57812 8.05469C1.66667 7.96615 1.80208 7.92188 1.98438 7.92188H9.05469C9.23698 7.92188 9.36979 7.96615 9.45312 8.05469C9.54167 8.14323 9.58594 8.29688 9.58594 8.51562V14.0625C9.58594 14.2812 9.54167 14.4349 9.45312 14.5234C9.36979 14.6172 9.23698 14.6641 9.05469 14.6641H1.98438ZM1.53906 7.36719H2.79688V4.71875C2.79688 4.0625 2.92188 3.51302 3.17188 3.07031C3.42188 2.6224 3.7526 2.28646 4.16406 2.0625C4.58073 1.83333 5.03125 1.71875 5.51562 1.71875C6.00521 1.71875 6.45573 1.83333 6.86719 2.0625C7.27865 2.28646 7.60938 2.6224 7.85938 3.07031C8.10938 3.51302 8.23438 4.0625 8.23438 4.71875V7.36719H9.49219V4.88281C9.49219 4.14844 9.38281 3.50781 9.16406 2.96094C8.94531 2.41406 8.64844 1.96094 8.27344 1.60156C7.89844 1.23698 7.47135 0.966146 6.99219 0.789062C6.51823 0.606771 6.02604 0.515625 5.51562 0.515625C5.00521 0.515625 4.51302 0.606771 4.03906 0.789062C3.5651 0.966146 3.14062 1.23698 2.76562 1.60156C2.39062 1.96094 2.09115 2.41406 1.86719 2.96094C1.64844 3.50781 1.53906 4.14844 1.53906 4.88281V7.36719Z" fill="white"/>
</svg>
