<svg width="62" height="63" viewBox="0 0 62 63" fill="none" xmlns="http://www.w3.org/2000/svg">
<path d="M30.9688 62.0625C35.1979 62.0625 39.1562 61.2604 42.8438 59.6562C46.5312 58.0729 49.7812 55.875 52.5938 53.0625C55.4062 50.25 57.6146 47 59.2188 43.3125C60.8229 39.6042 61.625 35.6458 61.625 31.4375C61.625 27.2292 60.8229 23.2812 59.2188 19.5938C57.6146 15.8854 55.4062 12.625 52.5938 9.8125C49.7812 7 46.5208 4.80208 42.8125 3.21875C39.125 1.61458 35.1771 0.8125 30.9688 0.8125C26.7604 0.8125 22.8021 1.61458 19.0938 3.21875C15.4062 4.80208 12.1562 7 9.34375 9.8125C6.53125 12.625 4.32292 15.8854 2.71875 19.5938C1.13542 23.2812 0.34375 27.2292 0.34375 31.4375C0.34375 35.6458 1.13542 39.6042 2.71875 43.3125C4.32292 47 6.53125 50.25 9.34375 53.0625C12.1562 55.875 15.4062 58.0729 19.0938 59.6562C22.8021 61.2604 26.7604 62.0625 30.9688 62.0625ZM30.9688 59.6875C27.0729 59.6875 23.4167 58.9583 20 57.5C16.5833 56.0417 13.5729 54.0208 10.9688 51.4375C8.38542 48.8333 6.36458 45.8229 4.90625 42.4062C3.44792 38.9896 2.71875 35.3333 2.71875 31.4375C2.71875 27.5417 3.44792 23.8854 4.90625 20.4688C6.36458 17.0521 8.38542 14.0417 10.9688 11.4375C13.5729 8.83333 16.5833 6.80208 20 5.34375C23.4167 3.88542 27.0729 3.15625 30.9688 3.15625C34.8854 3.15625 38.5417 3.88542 41.9375 5.34375C45.3542 6.80208 48.3646 8.83333 50.9688 11.4375C53.5729 14.0417 55.6042 17.0521 57.0625 20.4688C58.5208 23.8854 59.25 27.5417 59.25 31.4375C59.25 35.3333 58.5208 38.9896 57.0625 42.4062C55.6042 45.8229 53.5729 48.8333 50.9688 51.4375C48.3854 54.0208 45.3854 56.0417 41.9688 57.5C38.5521 58.9583 34.8854 59.6875 30.9688 59.6875ZM27.625 46.25C28.0625 46.25 28.4479 46.0521 28.7812 45.6562L45.1562 20.2188C45.2188 20.1146 45.2812 19.9896 45.3438 19.8438C45.4062 19.6771 45.4375 19.5208 45.4375 19.375C45.4375 19.0833 45.3125 18.8333 45.0625 18.625C44.8333 18.3958 44.5729 18.2812 44.2812 18.2812C43.9062 18.2812 43.5521 18.4896 43.2188 18.9062L27.5938 43.3125L18.9688 33.2188C18.8021 33.0104 18.6354 32.875 18.4688 32.8125C18.3021 32.7292 18.1042 32.6875 17.875 32.6875C17.5833 32.6875 17.3229 32.8021 17.0938 33.0312C16.8646 33.2396 16.75 33.5 16.75 33.8125C16.75 34.1042 16.875 34.4271 17.125 34.7812L26.4688 45.6562C26.6354 45.8646 26.8021 46.0208 26.9688 46.125C27.1562 46.2083 27.375 46.25 27.625 46.25Z" fill="#3CFF72"/>
</svg>
