<svg width="96" height="16" viewBox="0 0 96 16" fill="none" xmlns="http://www.w3.org/2000/svg">
<path d="M35.2804 13.0036C35.427 13.23 35.505 13.5024 35.5126 13.8144C35.505 14.156 35.4289 14.4379 35.2861 14.6606C35.1471 14.8795 34.9634 15.0575 34.7426 15.189C34.5274 15.3186 34.2915 15.4098 34.0411 15.4601C33.7964 15.5104 33.5624 15.5362 33.3491 15.5362C33.0799 15.5362 32.7981 15.5192 32.5106 15.4897C32.2193 15.4601 31.9041 15.3953 31.572 15.2984L31.4493 15.2613L31.6701 14.1963L31.8129 14.2353C32.1375 14.3227 32.4363 14.3856 32.7018 14.4247C32.9654 14.4637 33.1862 14.4838 33.3548 14.4838C33.4756 14.4838 33.5976 14.4706 33.7146 14.4429C33.8317 14.4171 33.9355 14.3781 34.0279 14.3297C34.1116 14.285 34.1783 14.2277 34.228 14.1573C34.2745 14.0925 34.2965 14.0202 34.2965 13.9384C34.2909 13.7717 34.2337 13.6289 34.1242 13.51C34.0015 13.3785 33.8423 13.2577 33.6454 13.152C33.4416 13.0407 33.217 12.9256 32.9793 12.8123C32.7345 12.6953 32.5005 12.5582 32.2854 12.4022C32.0627 12.2424 31.8752 12.048 31.7267 11.8253C31.5707 11.595 31.4927 11.3057 31.4927 10.9716C31.4927 10.7231 31.5575 10.4986 31.6877 10.3035C31.8123 10.1142 31.9734 9.95692 32.1703 9.83236C32.3615 9.71158 32.5729 9.61721 32.8031 9.55241C33.0315 9.48573 33.2573 9.45239 33.475 9.45239C33.6926 9.45239 33.9405 9.46938 34.2097 9.50272C34.479 9.53795 34.7942 9.59897 35.1427 9.6883L35.2704 9.72164L35.0609 10.7867L34.9124 10.7401C34.6117 10.6476 34.3431 10.5841 34.1129 10.5508C33.8807 10.5193 33.6656 10.5023 33.475 10.5023C33.2485 10.5023 33.0591 10.5577 32.9113 10.664C32.7742 10.764 32.7113 10.8829 32.7113 11.037C32.7169 11.1685 32.7761 11.2836 32.8931 11.3837C33.0321 11.5007 33.1975 11.6083 33.3831 11.7026C33.5781 11.8008 33.7952 11.9083 34.0342 12.0272C34.2789 12.1461 34.5129 12.2833 34.7281 12.4355C34.9527 12.5915 35.1383 12.7821 35.2811 13.0029L35.2804 13.0036Z" fill="white"/>
<path d="M41.0756 10.6571C41.1328 10.9282 41.1611 11.2729 41.1611 11.6774V15.3915H40.0017V11.7775C40.0017 11.5585 39.998 11.3635 39.9904 11.1931C39.9829 11.037 39.9552 10.9074 39.9086 10.8037C39.864 10.7074 39.8011 10.6369 39.7117 10.5847C39.5318 10.479 39.1493 10.4621 38.7323 10.6218C38.519 10.7036 38.3133 10.798 38.122 10.9056C37.9478 11.0018 37.7641 11.115 37.5747 11.2434V15.3915H36.4153V6.86372L37.5747 6.73413V10.1437C37.7288 10.0494 37.8811 9.96383 38.0289 9.88771C38.2497 9.77637 38.4781 9.67634 38.7115 9.5889C38.9543 9.49957 39.194 9.45365 39.4217 9.45365C39.7369 9.45365 40.0061 9.49076 40.2232 9.56688C40.4496 9.64488 40.6371 9.77636 40.778 9.96005C40.917 10.1381 41.0152 10.3721 41.0749 10.6577L41.0756 10.6571Z" fill="white"/>
<path d="M46.9656 11.1723C46.8782 10.8383 46.741 10.5394 46.5573 10.2872C46.3737 10.033 46.1365 9.82732 45.8541 9.67886C45.5703 9.52851 45.2325 9.45239 44.8507 9.45239C44.4688 9.45239 44.1065 9.51908 43.7787 9.65118C43.4484 9.78266 43.1572 9.98145 42.9125 10.2413C42.6696 10.5011 42.4765 10.8257 42.3375 11.2056C42.2003 11.5825 42.1299 12.0241 42.1299 12.5154C42.1299 13.0589 42.2022 13.5263 42.3431 13.905C42.486 14.2869 42.6847 14.6027 42.9351 14.8436C43.1836 15.0864 43.4805 15.2645 43.8165 15.3739C44.1448 15.4796 44.5047 15.5356 44.8852 15.5356C45.1243 15.5356 45.3602 15.5186 45.5829 15.4891C45.7999 15.4595 46.0038 15.4261 46.1875 15.389C46.3711 15.3519 46.5511 15.3054 46.7234 15.2538L46.848 15.2148L46.6196 14.1944L46.4693 14.2498C46.3579 14.2925 46.2334 14.3297 46.1038 14.3611C45.9742 14.3926 45.8163 14.4221 45.6383 14.4467C45.4621 14.4706 45.2652 14.4838 45.0501 14.4838C44.7274 14.4838 44.4562 14.4316 44.2467 14.3278C44.0335 14.224 43.8611 14.0868 43.7309 13.9195C43.6013 13.7509 43.5063 13.5615 43.4528 13.3521C43.41 13.1835 43.3824 13.0124 43.3729 12.8419H46.8939L47.0908 12.2631L47.0984 12.2185C47.0984 11.8549 47.0537 11.5026 46.9669 11.1723H46.9656ZM43.4629 11.5881C43.5038 11.4214 43.578 11.2541 43.6875 11.093C43.7932 10.9332 43.9398 10.7923 44.1216 10.6741C44.2958 10.5608 44.5279 10.5036 44.806 10.5036C45.0526 10.5036 45.2438 10.5665 45.3866 10.6948C45.5408 10.832 45.654 10.988 45.7263 11.1585C45.8025 11.3365 45.8509 11.5107 45.871 11.6743C45.8824 11.7523 45.888 11.8133 45.893 11.8599H43.4107C43.422 11.7819 43.4384 11.6913 43.4629 11.5887V11.5881Z" fill="white"/>
<path d="M17.3296 9.56437H18.5412L16.6288 15.3915H15.4398L14.6182 12.2436C14.544 11.9637 14.483 11.7058 14.4345 11.4812C14.3937 11.2956 14.3584 11.1346 14.327 10.9968C14.2917 11.1396 14.2452 11.305 14.1917 11.49C14.125 11.7146 14.0508 11.9668 13.9709 12.2449L13.0009 15.3909H11.81L10.2348 9.56374H11.4502L12.129 12.1719C12.1881 12.3833 12.2422 12.6154 12.2906 12.8582C12.3391 13.0954 12.385 13.3181 12.4278 13.5244C12.4372 13.5672 12.4448 13.61 12.4517 13.6521C12.4649 13.6075 12.4756 13.5616 12.4888 13.5169C12.5479 13.3093 12.6115 13.0866 12.6763 12.8469C12.743 12.6079 12.8096 12.3795 12.8763 12.1644L13.691 9.56374H15.0825L15.7374 12.1719C15.7896 12.3871 15.8431 12.6154 15.899 12.8545C15.9532 13.0904 15.9991 13.3181 16.0381 13.5276C16.0475 13.5798 16.0569 13.6314 16.0657 13.6836C16.084 13.6226 16.101 13.5609 16.1199 13.5018C16.179 13.2961 16.2463 13.0734 16.3199 12.8318C16.3922 12.5928 16.4627 12.3701 16.5294 12.1637L17.3308 9.56311L17.3296 9.56437Z" fill="white"/>
<path d="M24.1991 10.9818C24.0154 10.6012 23.7801 10.2936 23.5014 10.0633C23.2215 9.83497 22.9133 9.67393 22.583 9.5846C22.2603 9.49716 21.9558 9.45312 21.6796 9.45312C21.3884 9.45312 21.077 9.50157 20.7524 9.59593C20.424 9.69406 20.1126 9.8614 19.8264 10.0967C19.5408 10.3338 19.3011 10.6496 19.1161 11.039C18.9324 11.4265 18.8381 11.9166 18.8381 12.4935C18.8381 13.0703 18.9306 13.5843 19.1105 13.9756C19.2904 14.3669 19.5225 14.6827 19.7987 14.9123C20.073 15.1406 20.3774 15.3036 20.7039 15.3967C21.0248 15.4892 21.3349 15.5357 21.6262 15.5357C21.9174 15.5357 22.22 15.4873 22.5465 15.391C22.8805 15.2948 23.1938 15.1255 23.4794 14.8903C23.7669 14.6544 24.0079 14.3316 24.1953 13.9328C24.3828 13.5321 24.479 13.0257 24.479 12.4281C24.479 11.8304 24.3847 11.363 24.1991 10.9812V10.9818ZM23.2624 12.5495C23.2624 13.2024 23.1215 13.6956 22.8447 14.0133C22.5685 14.3304 22.1917 14.4845 21.691 14.4845C21.1902 14.4845 20.7933 14.3285 20.4982 14.0058C20.2032 13.6849 20.0547 13.1804 20.0547 12.5048C20.0547 11.8292 20.19 11.3177 20.4592 10.9875C20.7247 10.6628 21.1028 10.5031 21.6148 10.5031C22.1269 10.5031 22.522 10.6647 22.817 10.9981C23.1139 11.3303 23.2624 11.8518 23.2624 12.5488V12.5495Z" fill="white"/>
<path d="M30.5327 10.9818C30.349 10.6012 30.1137 10.2936 29.8351 10.0633C29.5551 9.83497 29.2469 9.67393 28.9166 9.5846C28.592 9.49716 28.2894 9.45312 28.0132 9.45312C27.722 9.45312 27.4106 9.50157 27.086 9.59593C26.7576 9.69406 26.4462 9.8614 26.16 10.0967C25.8725 10.3338 25.6347 10.6496 25.4497 11.039C25.266 11.4265 25.1717 11.9166 25.1717 12.4935C25.1717 13.0703 25.2623 13.5843 25.4441 13.9756C25.624 14.3669 25.8561 14.6827 26.1323 14.9123C26.4066 15.1406 26.711 15.3036 27.0375 15.3967C27.3584 15.4892 27.6685 15.5357 27.9598 15.5357C28.251 15.5357 28.5536 15.4873 28.8801 15.391C29.2141 15.2948 29.5274 15.1255 29.813 14.8903C30.1005 14.6544 30.3402 14.3316 30.5289 13.9328C30.7164 13.5321 30.8127 13.0257 30.8127 12.4281C30.8127 11.8304 30.7183 11.363 30.5327 10.9812V10.9818ZM28.0245 14.4845C27.5163 14.4845 27.1269 14.3285 26.8318 14.0058C26.5368 13.6849 26.3883 13.1804 26.3883 12.5048C26.3883 11.8292 26.5236 11.3177 26.7928 10.9875C27.0583 10.6628 27.4345 10.5031 27.9484 10.5031C28.4624 10.5031 28.8556 10.6647 29.1506 10.9981C29.4457 11.3303 29.596 11.8518 29.596 12.5488C29.596 13.2018 29.4551 13.695 29.1783 14.0127C28.9021 14.3298 28.5253 14.4839 28.0245 14.4839V14.4845Z" fill="white"/>
<path d="M52.7129 15.2355C52.6978 15.1185 52.6852 15.0053 52.6739 14.8958C52.6645 14.7902 52.6569 14.6807 52.6538 14.5694C52.65 14.4561 52.6481 14.3504 52.6481 14.2485V6.73352L51.4868 6.86311V9.57885C51.2774 9.52853 51.1138 9.49707 50.9936 9.48071C50.8395 9.46247 50.6929 9.45304 50.5558 9.45304C50.2796 9.45304 49.9751 9.50336 49.6486 9.60339C49.3203 9.70341 49.0089 9.87452 48.7245 10.1079C48.437 10.3451 48.1961 10.6628 48.0086 11.054C47.8212 11.4472 47.7249 11.9392 47.7249 12.516C47.7249 13.4861 47.9344 14.2378 48.3464 14.7499C48.7654 15.2714 49.3498 15.5362 50.0808 15.5362C50.2721 15.5362 50.4684 15.5029 50.669 15.4419C50.8622 15.3809 51.044 15.3104 51.2069 15.2286C51.3145 15.1764 51.4239 15.1154 51.5352 15.0468L51.6095 15.4941L52.7318 15.3771L52.7129 15.2362V15.2355ZM51.4868 10.637V13.9667C51.3516 14.0629 51.2213 14.1428 51.0974 14.2076C50.9584 14.2819 50.8024 14.3467 50.6376 14.4045C50.4816 14.4586 50.3281 14.4844 50.1815 14.4844C49.9739 14.4844 49.8028 14.4322 49.6562 14.3246C49.504 14.2114 49.3725 14.0592 49.2649 13.8704C49.1554 13.6792 49.0718 13.4584 49.0202 13.2156C48.968 12.969 48.9422 12.7186 48.9422 12.4714C48.9422 12.199 48.9736 11.9373 49.0366 11.6957C49.0976 11.4598 49.1963 11.2503 49.3278 11.0704C49.4574 10.8943 49.6247 10.7533 49.8229 10.6546C50.023 10.5546 50.2702 10.5023 50.5558 10.5023C50.7024 10.5023 50.8489 10.5118 50.9917 10.53C51.1125 10.5451 51.2774 10.5803 51.4868 10.6357V10.637Z" fill="white"/>
<path d="M9.24783 1.44051C9.31829 1.6739 9.36987 1.92113 9.34345 2.1715C9.33087 2.28285 9.31388 2.40489 9.19309 2.45648C9.08363 2.50492 8.99746 2.43005 8.92071 2.3596C8.70305 2.1564 8.44009 2.02178 8.18971 1.87269C7.90662 1.70535 7.58265 1.6632 7.26622 1.66132C6.76548 1.65691 6.29619 1.80034 5.83884 2.00731C5.51487 2.15263 5.19592 2.30487 4.88893 2.47975C4.37434 2.77416 3.88429 3.11198 3.46029 3.52528C3.18664 3.7895 2.89033 4.04931 2.73243 4.41418C2.63367 4.64442 2.74942 4.84006 3.00168 4.8583C3.16776 4.87088 3.33195 4.83943 3.48859 4.78974C4.02394 4.61737 4.57439 4.5098 5.12546 4.40663C6.05021 4.23111 6.97181 4.27955 7.87328 4.5381C8.43379 4.69789 8.88611 5.01054 9.15788 5.54589C9.52589 6.28003 9.26732 7.27523 8.94209 7.97162C8.73575 8.41009 8.48852 8.84353 8.15826 9.20337C7.65751 9.74815 7.09259 10.2193 6.44275 10.5961C5.82437 10.9547 5.17202 11.2221 4.48632 11.4133C3.956 11.5586 3.41248 11.6121 2.86518 11.5417C2.41161 11.4838 2.05617 11.2378 1.75232 10.9031C1.40004 10.52 1.19496 10.0828 1.22516 9.5525C1.23145 9.4443 1.24215 9.33673 1.28933 9.23608C1.37237 9.05301 1.55354 9.02659 1.68376 9.17506C1.74793 9.24551 1.79951 9.32667 1.80265 9.42229C1.81838 9.97336 2.1801 10.1596 2.63178 10.264C3.05263 10.3609 3.46091 10.2703 3.86037 10.1401C4.44542 9.94757 4.97322 9.64876 5.4834 9.30465C5.98101 8.96998 6.39746 8.55793 6.78875 8.11506C7.38637 7.43439 7.58517 6.63168 7.48388 5.74719C7.46061 5.53268 7.40713 5.31376 7.25867 5.13384C7.0473 4.87906 6.76862 4.80672 6.46037 4.80231C5.86715 4.79477 5.2821 4.84635 4.70146 4.99041C4.22084 5.10805 3.7528 5.25965 3.29798 5.44586C2.78339 5.65723 2.49968 5.52576 2.10398 5.11874C1.72339 4.72746 1.71585 4.32359 2.00208 3.7354C2.4028 2.91696 3.03502 2.29228 3.72009 1.71982C4.39761 1.15302 5.15502 0.702597 5.96905 0.362894C6.55913 0.11881 7.17375 -0.0441201 7.82988 0.01061C8.14631 0.0389186 8.3948 0.167248 8.6219 0.376732C8.93958 0.669254 9.12579 1.03979 9.24783 1.44051Z" fill="white"/>
<path d="M15.6342 5.46728C15.6242 5.58114 15.3675 5.60693 15.1253 5.70633C12.519 6.7808 9.92029 8.28871 7.66566 9.97905C6.45468 10.8868 5.33429 11.9103 4.27366 12.9886C3.7509 13.5208 3.24134 14.0668 2.74185 14.6204C2.60282 14.7745 2.22098 15.374 2.00017 15.3671C1.70639 15.3589 1.74664 14.918 1.72022 14.716C1.66612 14.2926 1.63782 13.8661 1.56988 13.4446C1.45287 12.7174 1.31322 11.994 1.1528 11.275C0.967223 10.4458 0.753953 9.62299 0.511757 8.80833C0.383425 8.37741 0.248173 7.94837 0.103484 7.52185C0.0506413 7.36521 -0.0336506 7.09596 0.0141596 6.99468C0.0437264 6.93366 0.121106 6.93366 0.284038 7.05885C0.407338 7.15384 0.524342 7.2545 0.641351 7.35578C0.818752 7.50991 0.991123 7.66655 1.16286 7.82633C1.33397 7.98423 1.50194 8.14716 1.66802 8.31072C1.86492 8.50574 2.05867 8.70516 2.24362 8.91087C2.24739 8.91527 2.25116 8.91967 2.25494 8.92345C2.55186 9.25371 2.83118 9.61544 3.0891 10.0118C3.00606 9.88406 4.61651 8.59444 4.77126 8.45541C5.61738 7.69611 6.56038 7.04627 7.56754 6.5191C8.95403 5.79377 10.4619 5.29994 12.0101 5.07158C12.4266 5.01056 15.516 4.61173 15.6311 5.38864C15.6349 5.41318 15.6355 5.43834 15.633 5.46539L15.6342 5.46728Z" fill="white"/>
<path d="M60.2754 15H61.3301V7.49414H64.0547V6.54492H57.5508V7.49414H60.2754V15ZM66.9785 15.1113C67.5801 15.1113 68.0977 14.9805 68.5312 14.7188C68.9648 14.4531 69.2988 14.0762 69.5332 13.5879C69.7715 13.0996 69.8906 12.5195 69.8906 11.8477V11.8359C69.8906 11.1602 69.7715 10.5781 69.5332 10.0898C69.2988 9.60156 68.9648 9.22656 68.5312 8.96484C68.0977 8.70312 67.5801 8.57227 66.9785 8.57227C66.3809 8.57227 65.8633 8.70312 65.4258 8.96484C64.9922 9.22656 64.6562 9.60156 64.418 10.0898C64.1836 10.5781 64.0664 11.1602 64.0664 11.8359V11.8477C64.0664 12.5195 64.1836 13.0996 64.418 13.5879C64.6562 14.0762 64.9922 14.4531 65.4258 14.7188C65.8633 14.9805 66.3809 15.1113 66.9785 15.1113ZM66.9785 14.209C66.5801 14.209 66.2422 14.1152 65.9648 13.9277C65.6875 13.7402 65.4746 13.4707 65.3262 13.1191C65.1816 12.7676 65.1094 12.3438 65.1094 11.8477V11.8359C65.1094 11.3359 65.1816 10.9102 65.3262 10.5586C65.4746 10.207 65.6875 9.93945 65.9648 9.75586C66.2422 9.56836 66.5801 9.47461 66.9785 9.47461C67.377 9.47461 67.7148 9.56836 67.9922 9.75586C68.2695 9.93945 68.4805 10.207 68.625 10.5586C68.7734 10.9102 68.8477 11.3359 68.8477 11.8359V11.8477C68.8477 12.3438 68.7734 12.7676 68.625 13.1191C68.4805 13.4707 68.2695 13.7402 67.9922 13.9277C67.7148 14.1152 67.377 14.209 66.9785 14.209ZM71.5312 15H72.5508V6.17578H71.5312V15ZM75.5098 15H76.793L73.793 11.2559L73.043 11.9062L75.5098 15ZM72.4219 12.7266L73.3652 11.8184L73.6113 11.5781L76.6113 8.68359H75.375L72.6445 11.4434H72.375L72.4219 12.7266ZM80.2734 15.1113C80.6445 15.1113 80.9785 15.0645 81.2754 14.9707C81.5762 14.873 81.8359 14.7441 82.0547 14.584C82.2734 14.4199 82.4512 14.2383 82.5879 14.0391C82.7285 13.8359 82.8262 13.627 82.8809 13.4121L82.8926 13.3652H81.873L81.8496 13.418C81.7949 13.543 81.6992 13.666 81.5625 13.7871C81.4258 13.9082 81.252 14.0078 81.041 14.0859C80.8301 14.1641 80.582 14.2031 80.2969 14.2031C79.9141 14.2031 79.582 14.1191 79.3008 13.9512C79.0195 13.7793 78.8027 13.5352 78.6504 13.2188C78.498 12.8984 78.4219 12.5137 78.4219 12.0645V11.6602C78.4219 11.1875 78.5 10.7891 78.6562 10.4648C78.8125 10.1406 79.0234 9.89648 79.2891 9.73242C79.5586 9.56445 79.8633 9.48047 80.2031 9.48047C80.543 9.48047 80.8438 9.56055 81.1055 9.7207C81.3672 9.87695 81.5723 10.1152 81.7207 10.4355C81.8691 10.7559 81.9434 11.1641 81.9434 11.6602V12.0645L82.4473 11.3203H77.9062V12.1348H82.9688V11.7363C82.9688 11.1074 82.8574 10.5566 82.6348 10.084C82.416 9.60742 82.0996 9.23633 81.6855 8.9707C81.2754 8.70508 80.7832 8.57227 80.209 8.57227C79.6387 8.57227 79.1406 8.71094 78.7148 8.98828C78.2891 9.26562 77.959 9.65039 77.7246 10.1426C77.4941 10.6348 77.3789 11.207 77.3789 11.8594V11.8652C77.3789 12.5254 77.4941 13.0996 77.7246 13.5879C77.959 14.0723 78.291 14.4473 78.7207 14.7129C79.1543 14.9785 79.6719 15.1113 80.2734 15.1113ZM84.5508 15H85.5703V11.2617C85.5703 10.8906 85.6367 10.5723 85.7695 10.3066C85.9062 10.041 86.0977 9.83594 86.3438 9.69141C86.5898 9.54688 86.8809 9.47461 87.2168 9.47461C87.7207 9.47461 88.0918 9.61328 88.3301 9.89062C88.5723 10.1641 88.6934 10.5859 88.6934 11.1562V15H89.7129V10.9102C89.7129 10.1602 89.5215 9.58398 89.1387 9.18164C88.7598 8.77539 88.2148 8.57227 87.5039 8.57227C87.0391 8.57227 86.6562 8.66602 86.3555 8.85352C86.0547 9.03711 85.8242 9.29688 85.6641 9.63281H85.5703V8.68359H84.5508V15Z" fill="white"/>
</svg>
