<svg width="17" height="17" viewBox="0 0 17 17" fill="none" xmlns="http://www.w3.org/2000/svg">
<path d="M0.164062 3.84375C0.164062 4.07812 0.236979 4.26562 0.382812 4.40625C0.528646 4.54688 0.721354 4.61719 0.960938 4.61719H2.99219V14.2031C2.99219 15.0208 3.19531 15.6328 3.60156 16.0391C4.00781 16.4505 4.61979 16.6562 5.4375 16.6562H14.3672C14.862 16.6562 15.2943 16.5495 15.6641 16.3359C16.0339 16.1276 16.3203 15.8307 16.5234 15.4453C16.7266 15.0651 16.8281 14.6172 16.8281 14.1016V11.9766C16.8281 11.7422 16.7552 11.5547 16.6094 11.4141C16.4688 11.2734 16.276 11.2031 16.0312 11.2031H15.3828V2.51562C15.3828 1.69792 15.1797 1.08594 14.7734 0.679688C14.3724 0.268229 13.7682 0.0625 12.9609 0.0625H2.21094C1.60156 0.0625 1.10677 0.255208 0.726562 0.640625C0.351562 1.02604 0.164062 1.54427 0.164062 2.19531V3.84375ZM4.25 14.2109V2.19531C4.25 2.03385 4.24219 1.88021 4.22656 1.73438C4.21094 1.58854 4.1875 1.45052 4.15625 1.32031H12.8906C13.2969 1.32031 13.6042 1.42448 13.8125 1.63281C14.0208 1.84115 14.125 2.14062 14.125 2.53125V11.2031H7.41406C7.16927 11.2031 6.97396 11.2734 6.82812 11.4141C6.68229 11.5547 6.60938 11.7422 6.60938 11.9766V14.2109C6.60938 14.5651 6.4974 14.8516 6.27344 15.0703C6.05469 15.2891 5.77604 15.3984 5.4375 15.3984C5.08854 15.3984 4.80208 15.2865 4.57812 15.0625C4.35938 14.8385 4.25 14.5547 4.25 14.2109ZM1.42188 3.35938V2.19531C1.42188 1.92448 1.49479 1.71094 1.64062 1.55469C1.79167 1.39844 1.98177 1.32031 2.21094 1.32031C2.44531 1.32031 2.63281 1.39844 2.77344 1.55469C2.91927 1.71094 2.99219 1.92448 2.99219 2.19531V3.35938H1.42188ZM7.5625 15.3984C7.76562 15.0391 7.86719 14.6146 7.86719 14.125V12.4609H15.5703V14.1016C15.5703 14.487 15.4583 14.7995 15.2344 15.0391C15.0156 15.2786 14.7266 15.3984 14.3672 15.3984H7.5625ZM6.5 7.35156H9.30469C9.44531 7.35156 9.5599 7.30729 9.64844 7.21875C9.74219 7.125 9.78906 7.01302 9.78906 6.88281C9.78906 6.74219 9.74219 6.625 9.64844 6.53125C9.5599 6.4375 9.44531 6.39062 9.30469 6.39062H6.5C6.35938 6.39062 6.24219 6.4375 6.14844 6.53125C6.05469 6.625 6.00781 6.74219 6.00781 6.88281C6.00781 7.01302 6.05469 7.125 6.14844 7.21875C6.24219 7.30729 6.35938 7.35156 6.5 7.35156ZM6.5 4.625H11.875C12.0156 4.625 12.1302 4.57812 12.2188 4.48438C12.3125 4.39062 12.3594 4.27604 12.3594 4.14062C12.3594 4.00521 12.3125 3.89323 12.2188 3.80469C12.1302 3.71094 12.0156 3.66406 11.875 3.66406H6.5C6.35938 3.66406 6.24219 3.71094 6.14844 3.80469C6.05469 3.89323 6.00781 4.00521 6.00781 4.14062C6.00781 4.27604 6.05469 4.39062 6.14844 4.48438C6.24219 4.57812 6.35938 4.625 6.5 4.625Z" fill="#999999"/>
</svg>
