<svg width="20" height="20" viewBox="0 0 20 20" fill="none" xmlns="http://www.w3.org/2000/svg">
<path d="M0.458984 8.11328C0.458984 9.1875 0.660807 10.1966 1.06445 11.1406C1.4681 12.0781 2.02799 12.9049 2.74414 13.6211C3.46029 14.3372 4.28711 14.8971 5.22461 15.3008C6.16862 15.7044 7.17773 15.9062 8.25195 15.9062C9.09831 15.9062 9.9056 15.776 10.6738 15.5156C11.4421 15.2552 12.1452 14.8971 12.7832 14.4414L17.5879 19.2559C17.7051 19.3665 17.832 19.4479 17.9688 19.5C18.112 19.5586 18.2617 19.5879 18.418 19.5879C18.6393 19.5879 18.8346 19.5358 19.0039 19.4316C19.1732 19.334 19.3034 19.1973 19.3945 19.0215C19.4922 18.8457 19.541 18.6504 19.541 18.4355C19.541 18.2793 19.5117 18.1328 19.4531 17.9961C19.401 17.8594 19.3229 17.7389 19.2188 17.6348L14.4434 12.8301C14.9447 12.179 15.3353 11.4531 15.6152 10.6523C15.9017 9.85156 16.0449 9.00521 16.0449 8.11328C16.0449 7.03906 15.8431 6.0332 15.4395 5.0957C15.0358 4.15169 14.4759 3.32161 13.7598 2.60547C13.0436 1.88932 12.2135 1.32943 11.2695 0.925781C10.332 0.522135 9.32617 0.320312 8.25195 0.320312C7.17773 0.320312 6.16862 0.522135 5.22461 0.925781C4.28711 1.32943 3.46029 1.88932 2.74414 2.60547C2.02799 3.32161 1.4681 4.15169 1.06445 5.0957C0.660807 6.0332 0.458984 7.03906 0.458984 8.11328ZM2.12891 8.11328C2.12891 7.26693 2.28516 6.47591 2.59766 5.74023C2.91667 4.99805 3.35612 4.34701 3.91602 3.78711C4.48242 3.2207 5.13346 2.78125 5.86914 2.46875C6.61133 2.14974 7.4056 1.99023 8.25195 1.99023C9.09831 1.99023 9.88932 2.14974 10.625 2.46875C11.3672 2.78125 12.0182 3.2207 12.5781 3.78711C13.138 4.34701 13.5775 4.99805 13.8965 5.74023C14.2155 6.47591 14.375 7.26693 14.375 8.11328C14.375 8.95964 14.2155 9.75391 13.8965 10.4961C13.5775 11.2318 13.138 11.8796 12.5781 12.4395C12.0182 12.9993 11.3672 13.4388 10.625 13.7578C9.88932 14.0768 9.09831 14.2363 8.25195 14.2363C7.4056 14.2363 6.61133 14.0768 5.86914 13.7578C5.13346 13.4388 4.48242 12.9993 3.91602 12.4395C3.35612 11.8796 2.91667 11.2318 2.59766 10.4961C2.28516 9.75391 2.12891 8.95964 2.12891 8.11328ZM8.27148 12.2148C8.43424 12.2148 8.53841 12.1204 8.58398 11.9316C8.68164 11.4043 8.7793 10.9551 8.87695 10.584C8.97461 10.2129 9.09505 9.9069 9.23828 9.66602C9.38151 9.41862 9.56706 9.2168 9.79492 9.06055C10.0293 8.9043 10.3288 8.7806 10.6934 8.68945C11.0579 8.5918 11.5169 8.50391 12.0703 8.42578C12.2656 8.39974 12.3633 8.29557 12.3633 8.11328C12.3633 7.93099 12.2656 7.82031 12.0703 7.78125C11.5234 7.70964 11.0612 7.625 10.6836 7.52734C10.3125 7.42969 10.0065 7.30273 9.76562 7.14648C9.53125 6.99023 9.33919 6.79167 9.18945 6.55078C9.04622 6.30339 8.92904 5.9974 8.83789 5.63281C8.74674 5.26823 8.66211 4.82552 8.58398 4.30469C8.55143 4.10938 8.44727 4.01172 8.27148 4.01172C8.0957 4.01172 7.98503 4.10612 7.93945 4.29492C7.83529 4.82878 7.73438 5.28125 7.63672 5.65234C7.54557 6.01693 7.42839 6.32292 7.28516 6.57031C7.14193 6.8112 6.95312 7.00977 6.71875 7.16602C6.49089 7.31576 6.19466 7.43945 5.83008 7.53711C5.46549 7.62826 5.00977 7.70964 4.46289 7.78125C4.26107 7.82031 4.16016 7.93099 4.16016 8.11328C4.16016 8.28906 4.26107 8.39323 4.46289 8.42578C5.14648 8.4974 5.69661 8.59831 6.11328 8.72852C6.52995 8.85221 6.85221 9.03776 7.08008 9.28516C7.31445 9.53255 7.49023 9.87109 7.60742 10.3008C7.73112 10.724 7.8418 11.2643 7.93945 11.9219C7.95247 12.0065 7.98828 12.0781 8.04688 12.1367C8.10547 12.1888 8.18034 12.2148 8.27148 12.2148Z" fill="white"/>
</svg>
