<svg width="22" height="16" viewBox="0 0 22 16" fill="none" xmlns="http://www.w3.org/2000/svg">
<path d="M3.48535 15.2744H18.5146C20.4131 15.2744 21.3975 14.29 21.3975 12.418V2.91699C21.3975 1.03613 20.4131 0.0605469 18.5146 0.0605469H3.48535C1.58691 0.0605469 0.602539 1.03613 0.602539 2.91699V12.418C0.602539 14.2988 1.58691 15.2744 3.48535 15.2744ZM2.3252 3.06641C2.3252 2.21387 2.77344 1.7832 3.59082 1.7832H18.4092C19.2178 1.7832 19.6748 2.21387 19.6748 3.06641V3.70801H2.3252V3.06641ZM3.59082 13.5518C2.77344 13.5518 2.3252 13.1211 2.3252 12.2686V5.75586H19.6748V12.2686C19.6748 13.1211 19.2178 13.5518 18.4092 13.5518H3.59082ZM4.78613 11.9521H6.93945C7.44922 11.9521 7.80078 11.6094 7.80078 11.1084V9.48242C7.80078 8.99023 7.44922 8.63867 6.93945 8.63867H4.78613C4.26758 8.63867 3.91602 8.99023 3.91602 9.48242V11.1084C3.91602 11.6094 4.26758 11.9521 4.78613 11.9521Z" fill="#999999"/>
</svg>
